<?xml version="1.0" encoding="utf-8"?>
<!-- Generator: Adobe Illustrator 17.0.0, SVG Export Plug-In . SVG Version: 6.00 Build 0)  -->
<!DOCTYPE svg PUBLIC "-//W3C//DTD SVG 1.1//EN" "http://www.w3.org/Graphics/SVG/1.1/DTD/svg11.dtd">
<svg version="1.1" id="Layer_1" xmlns="http://www.w3.org/2000/svg" xmlns:xlink="http://www.w3.org/1999/xlink" x="0px" y="0px"
	 width="51px" height="65px" viewBox="0 0 51 65" style="enable-background:new 0 0 51 65;" xml:space="preserve">
<style type="text/css">
	.Arched_x0020_Green{fill:url(#SVGID_1_);stroke:#FFFFFF;stroke-width:0.25;stroke-miterlimit:1;}
	.st0{fill:#BB942F;}
</style>
<linearGradient id="SVGID_1_" gradientUnits="userSpaceOnUse" x1="0" y1="85.04" x2="0.7071" y2="84.3329">
	<stop  offset="0" style="stop-color:#1EAB4B"/>
	<stop  offset="0.9831" style="stop-color:#19361A"/>
</linearGradient>
<g>
	<g>
		<path class="st0" d="M50.149,32.77c-0.206-0.308-0.468-0.527-0.756-0.656c0-0.064,0.007-0.128,0.007-0.193
			c0-0.501-0.02-0.997-0.049-1.49l0.645-0.974c0.373-0.583,0.442-1.45,0.16-2.02c-0.185-0.372-0.501-0.584-0.861-0.584
			c-0.137,0-0.27,0.039-0.396,0.1c-0.55-2.694-1.545-5.223-2.892-7.521c0.147,0.098,0.296,0.195,0.437,0.277
			c0.668,0.394,1.044-0.493,0.593-0.946c-0.435-0.434-3.979-3.86-3.979-3.86s0.63,0.078,1.062,0.078
			c0.435,0,0.669-0.195,0.789-0.669c0.118-0.473-0.396-0.63-1.025-0.827c-0.632-0.198-3.388-0.791-3.388-0.791
			s0.388-0.282,0.277-0.945c-0.156-0.912-1.997-2.27-2.562-2.599c-0.681-0.398-1.496-0.432-1.93-0.198
			c-0.434,0.239-0.316,0.907-0.316,0.907l0.092,0.088c0.517,0.167,1.012,0.457,1.424,0.835c0.295,0.268,0.55,0.578,0.73,0.926
			c0.1,0.191,0.165,0.381,0.213,0.566c0.188,0.737-0.02,1.401-0.55,1.794c-0.347,0.352,0.782,0.938,0.782,0.938l2.583,0.047
			c0.007,0,0.013,0.002,0.016,0.003c0.455,0.01,0.93,0.552,1.021,1.002c0.049,0.242-0.01,0.458-0.259,0.542l-1.702-0.018
			c-0.411,0.156-0.183,0.286-0.029,0.481l4.393,4.672c0.442,0.485,0.442,1.088,0,1.345c-0.442,0.259-1.159,0.074-1.598-0.411
			l-3.271-3.789c-0.236-0.247-0.296-0.272-0.38-0.257c-0.083,0.015-0.111,0.052-0.072,0.334l0.874,3.847
			c0.097,0.543-0.589,1.007-1.205,0.928c-0.617-0.079-1.026-0.272-1.121-0.815l-1.193-5.564c-0.059-0.21,0.003-0.391-0.488-0.395
			l-2.881,0.11c-0.506,0.021-1.025-0.488-1.208-0.959c-0.183-0.473,0.079-0.876,0.584-0.899l3.482-0.092
			c0,0,0.455-0.552-0.172-0.738c-1.033-0.205-2.054-0.92-2.552-1.871c-0.486-0.928-0.331-1.822,0.295-2.321
			c0.231-0.183,0.52-0.317,0.871-0.376c0.354-0.061,0.725-0.038,1.097,0.046c0.046,0.011,0.092,0.028,0.141,0.039
			c-0.049-0.024-0.095-0.049-0.144-0.072l-0.298-2.963c0.002-0.167-0.067-0.303,0.319-0.555l2.339-1.768
			c0.422-0.337,0.658-0.506,0.606-0.992c-0.039-0.388-0.278-0.655-0.74-0.591L35.404,4.7c0,0-0.35-0.79,0.17-1.034
			c0.881-0.321,1.634-1.026,1.858-1.823c0.3-1.062-0.453-1.886-1.68-1.84c-1.231,0.047-2.47,0.946-2.768,2.01
			c-0.226,0.796,0.142,1.457,0.861,1.719c0.391,0.208-0.848,0.995-0.848,0.995l-3.231-0.277c-0.434-0.031-0.918,0.26-1.084,0.65
			c-0.164,0.388,0.026,0.872,0.462,0.907l2.671,0.247c0.406,0.051,0.232,0.185,0.141,0.359l-0.945,1.427
			c-2.017-0.532-4.131-0.817-6.314-0.817C11.058,7.222,0,18.281,0,31.921c0,4.576,1.25,8.858,3.42,12.534l-1.022-0.719
			c-0.834-0.588-1.73-0.386-1.869,0.336c-0.117,0.64,0.422,1.398,1.016,1.814L6.7,49.506l0.005,0.005l-0.634,1.138
			c-0.324,0.56,0.092,1.303,0.616,1.755c0.684,0.588,1.499,0.629,1.829,0.061l0.672-1.272c0.011,0.005,0.02,0.01,0.03,0.016
			c0.014,0.789,0.538,1.771,1.394,2.603c0.854,0.83,1.838,1.323,2.634,1.323c0.411,0,0.76-0.134,1.005-0.386
			c0.097-0.098,0.171-0.214,0.23-0.342c1.116,0.509,2.274,0.935,3.469,1.275c0.188,0.046,0.39,0.09,0.596,0.136l-2.879,3.948
			c-0.538,0.735-0.374,1.766,0.359,2.3c0.734,0.537,1.764,0.376,2.302-0.359l3.821-5.249c0.352,0.036,0.705,0.065,1.061,0.087
			l0.002,6.752c0.003,0.91,0.741,1.647,1.65,1.645c0.908-0.002,1.646-0.74,1.646-1.65L26.5,56.515
			c0.914-0.064,1.817-0.177,2.701-0.34c0.196-0.026,0.396-0.052,0.596-0.085c2.67-0.56,5.177-1.552,7.451-2.897l2.557,1.527
			c0.131,0.097,0.278,0.121,0.257,0.576l0.064,2.887c0.026,0.532,0.026,0.817,0.439,1.059c0.324,0.195,0.671,0.16,0.882-0.246
			l0.08-3.048c0,0,0.818,0.183,0.717,0.74c-0.246,0.887-0.118,1.896,0.38,2.539c0.665,0.859,1.738,0.74,2.396-0.263
			c0.661-1.004,0.655-2.511-0.01-3.367c-0.499-0.645-1.228-0.738-1.84-0.321c-0.385,0.19-0.301-1.251-0.301-1.251l2.046-2.406
			c0.268-0.326,0.314-0.882,0.101-1.239c-0.213-0.359-0.702-0.491-0.972-0.164l-1.707,1.977c-0.269,0.295-0.277,0.077-0.36-0.098
			l-0.681-1.833c0.967-0.139,2.066-0.72,2.881-1.604c0.817-0.881,1.22-1.889,1.079-2.701c-0.015-0.083-0.043-0.16-0.069-0.237
			c1.422-2.107,2.521-4.447,3.241-6.947c0.645-0.1,1.247-0.611,1.679-1.444C50.866,35.871,50.884,33.868,50.149,32.77z
			 M33.116,7.747c0.151-0.223,0.201-0.252,0.282-0.255c0.078-0.002,0.113,0.023,0.141,0.241l0.113,1.169
			c-0.342-0.134-0.689-0.26-1.039-0.378L33.116,7.747z M29.577,28.809l0.516,3.976c0,0,0.945,0.738,1.111,0.075
			c0.142-1.121,0.936-2.102,2.092-2.426c1.539-0.432,3.138,0.466,3.568,2.008c0.435,1.54-0.465,3.135-2.005,3.569
			c-1.154,0.322-2.344-0.103-3.046-0.984c-0.489-0.481-0.914,0.64-0.914,0.64l1.63,3.665c0.226,0.542-0.03,1.164-0.573,1.393
			c-0.542,0.226-1.165-0.029-1.391-0.573l-1.316-3.059c-0.244-0.506-0.386-0.28-0.619-0.156l-5.81,3.878
			c-0.566,0.38-1.334,0.228-1.714-0.34c-0.377-0.568-0.224-1.334,0.342-1.712l4.433-2.956c0.288-0.204,0.313-0.268,0.285-0.368
			c-0.028-0.098-0.08-0.141-0.433-0.164l-5.325-0.221c-0.682-0.031-1.211-0.607-1.182-1.288c0.029-0.68,0.605-1.209,1.286-1.178
			l6.981,0.293c0.262-0.015,0.498,0.103,0.445-0.457l-0.465-3.297c-0.09-0.583,0.309-1.123,0.89-1.211
			C28.949,27.827,29.491,28.226,29.577,28.809z M14.026,21.653l3.757-1.349c0,0,0.46-0.949-0.241-0.93
			c-1.138,0.142-2.323-0.285-2.966-1.162c-0.857-1.167-0.424-2.691,0.966-3.405c1.391-0.714,3.211-0.345,4.068,0.822
			c0.642,0.876,0.558,1.953-0.11,2.738c-0.334,0.514,0.886,0.601,0.886,0.601l3.138-2.192c0.466-0.313,1.149-0.247,1.525,0.147
			c0.376,0.393,0.3,0.964-0.169,1.277l-2.631,1.796c-0.429,0.319-0.169,0.385,0.021,0.545l5.438,3.881
			c0.529,0.38,0.596,1.048,0.147,1.491c-0.452,0.444-1.247,0.496-1.778,0.116l-4.148-2.961c-0.279-0.19-0.348-0.195-0.438-0.149
			c-0.09,0.044-0.116,0.098-0.041,0.394l1.278,4.436c0.165,0.566-0.252,1.136-0.93,1.27c-0.677,0.136-1.357-0.216-1.519-0.784
			l-1.675-5.814c-0.085-0.213-0.036-0.437-0.569-0.262l-3.106,1.151c-0.545,0.208-1.188,0.005-1.439-0.453
			C13.241,22.399,13.48,21.861,14.026,21.653z M13.991,54.185c-0.033,0.067-0.07,0.134-0.123,0.188
			c-0.512,0.525-1.804,0.103-2.883-0.945c-0.601-0.584-1.008-1.238-1.161-1.792c-0.054-0.192-0.077-0.372-0.068-0.534
			c-0.039-0.417-0.827-0.565-0.827-0.565l-0.142,0.267l-0.744,1.409c-0.14,0.237-0.59,0.141-1.006-0.216
			c-0.416-0.36-0.639-0.841-0.502-1.08l0.763-1.368c0.016-0.034,0.013-0.059,0.017-0.087c0.03-0.175-0.121-0.25-0.287-0.38
			l-0.249-0.174l-4.927-3.462c-0.505-0.355-0.86-0.926-0.796-1.28c0.066-0.347,0.53-0.345,1.034,0.01l2.061,1.447l1.887,1.328
			c0.262,0.177,0.307,0.188,0.34,0.154c0.033-0.036,0.025-0.077-0.162-0.332l-2.885-3.86c-0.369-0.493-0.384-0.953-0.033-1.026
			c0.35-0.074,0.934,0.265,1.304,0.761l3.783,5.055c0.153,0.185,0.229,0.373,0.475,0.257l1.359-0.792
			c0.236-0.144,0.727,0.067,1.097,0.473c0.37,0.406,0.479,0.851,0.243,0.995l-1.665,0.92c0,0,0.166,0.782,0.589,0.809
			c0.629-0.052,1.557,0.381,2.367,1.167C13.815,52.469,14.277,53.586,13.991,54.185z M15.738,47.228
			c-0.327,0.154-1.06-0.141-1.33-0.717l-1.707-3.907c0,0-0.935-0.658-0.795,0.028c0.327,1.141,0.449,2.174-0.145,2.634
			c-0.793,0.609-2.112-0.11-2.949-1.607c-0.836-1.498-0.872-3.207-0.078-3.815c0.594-0.457,1.486-0.165,2.248,0.638
			c0.478,0.427,0.169-0.686,0.169-0.686l-2.286-3.383l-2.442-0.069c0,0-0.507,0.789-0.052,1.041
			c0.764,0.291,1.431,1.177,1.652,2.314c0.294,1.514-0.322,2.896-1.373,3.085c-1.052,0.193-2.141-0.881-2.434-2.395
			c-0.219-1.136,0.071-2.198,0.674-2.737c0.328-0.393-0.435-0.951-0.435-0.951l-2.502,1.02c-0.37,0.139-0.795-0.191-0.95-0.736
			c-0.151-0.542,0.023-1.092,0.393-1.231l2.088-0.812c0.345-0.157,0.193-0.324,0.107-0.56l-2.64-6.029
			c-0.257-0.588-0.153-1.29,0.234-1.571c0.388-0.273,0.909-0.021,1.167,0.565l2.013,4.601c0.137,0.3,0.182,0.334,0.25,0.321
			c0.067-0.015,0.097-0.056,0.112-0.385l0.158-4.994c0.02-0.638,0.413-1.059,0.878-0.935c0.464,0.12,0.827,0.74,0.803,1.38
			l-0.205,6.545c0.009,0.247-0.072,0.457,0.31,0.486l2.25,0.023c0.256,0,0.499,0.19,0.657,0.476
			c0.098,0.085,0.195,0.195,0.282,0.329l1.798,2.86c0.337,0.48,0.341,0.239,0.439,0.087l1.726-4.158
			c0.21-0.445,0.886-0.321,1.33,0.204c0.444,0.527,0.104,1.491-0.107,1.938l-1.366,3.429c-0.103,0.236-0.093,0.304-0.039,0.399
			c0.054,0.097,0.102,0.131,0.328,0.118l3.931-0.331c0.43-0.047,1.094-0.121,1.328,0.566c0.233,0.688-0.081,1.383-0.514,1.431
			l-4.438,0.237c-0.158,0.041-0.349-0.051-0.11,0.503l1.674,3.433C16.112,46.483,16.064,47.072,15.738,47.228z M33.159,53.086
			c-0.151,0.769-0.894,1.272-1.663,1.121l-4.37-0.801c-0.741-0.103-0.596,0.219-0.627,0.568L26.5,55.46
			c-0.602,0.046-1.202,0.074-1.8,0.074c-1.85,0-3.691-0.218-5.481-0.645l1.932-2.65c0.18-0.301,0.487-0.48-0.173-0.83l-4.005-1.923
			c-0.71-0.332-1.016-1.175-0.685-1.886c0.331-0.709,1.178-1.017,1.887-0.683l4.793,2.367c0,0,1.516-0.501,0.902-1.179
			c-1.138-0.985-1.639-2.593-1.144-4.112c0.662-2.028,2.842-3.138,4.87-2.478c2.026,0.658,3.136,2.838,2.477,4.866
			c-0.493,1.522-1.845,2.526-3.344,2.653c-0.895,0.187,0.036,1.485,0.036,1.485l5.271,0.905
			C32.805,51.572,33.306,52.319,33.159,53.086z M40.469,52.728c-0.043,0.064-0.082,0.077-0.27-0.026l-1.143-0.687
			c0.328-0.237,0.648-0.478,0.964-0.728l0.408,1.069C40.515,52.607,40.512,52.662,40.469,52.728z M43.784,48.293
			c-0.521,0.565-1.154,0.987-1.771,1.238c-0.313,0.126-0.617,0.201-0.905,0.228c-0.344,0.031-0.661-0.003-0.913-0.138
			c-0.663-0.344-0.725-1.185-0.249-2.089c0.223-0.54-0.835-0.023-0.835-0.023l-0.066,0.085l-2.354,3.04
			c-0.363,0.455-0.958,0.733-1.329,0.617c-0.37-0.113-0.376-0.576-0.015-1.03l2.036-2.591c0.327-0.439,0.097-0.363-0.083-0.393
			l-5.15-0.295c-0.504-0.029-0.643-0.494-0.314-1.038c0.332-0.547,1.008-0.962,1.511-0.936l3.928,0.226
			c0.264,0.008,0.322-0.02,0.395-0.098c0.069-0.075,0.088-0.129-0.013-0.314l-1.65-2.688c-0.21-0.344,0.075-0.967,0.642-1.391
			c0.563-0.419,1.19-0.483,1.401-0.139l2.159,3.527c0.098,0.116,0.087,0.306,0.522-0.079l2.521-2.334
			c0.445-0.418,1.02-0.571,1.291-0.352c0.273,0.221,0.134,0.738-0.309,1.156l-3.056,2.792c0,0-0.275,0.925,0.322,0.578
			c0.959-0.65,2.028-0.897,2.691-0.552c0.393,0.205,0.562,0.591,0.543,1.056C44.712,46.932,44.396,47.632,43.784,48.293z
			 M49.632,37.083c-0.291,0.563-0.658,0.92-1.031,1.077c-0.473,0.201-0.956,0.07-1.308-0.457c-0.47-0.704-0.571-1.892-0.309-2.982
			c0.115-0.676-0.563-0.318-0.563-0.318l-1.427,3.514c-0.214,0.509-0.597,0.691-0.854,0.408c-0.259-0.286-0.295-0.927-0.08-1.437
			l1.201-2.902c0.192-0.5,0.041-0.474-0.083-0.574l-3.501-2.164c-0.344-0.21-0.47-0.902-0.283-1.545
			c0.19-0.643,0.617-0.993,0.959-0.782l2.668,1.648c0.18,0.102,0.219,0.08,0.262-0.002c0.043-0.083,0.051-0.149-0.031-0.439
			l-1.298-4.293c-0.164-0.55-0.013-1.314,0.341-1.711c0.353-0.396,0.773-0.27,0.939,0.28l1.699,5.629
			c0.075,0.2,0.077,0.457,0.347,0.07l1.545-2.383c0.056-0.085,0.115-0.149,0.177-0.201c0.242-0.21,0.517-0.162,0.674,0.157
			c0.198,0.398,0.141,1.069-0.131,1.493l-0.26,0.391l-1.619,2.444c0,0-0.121,1.19,0.259,0.915c0.478-0.453,1.018-0.532,1.454-0.198
			c0.118,0.087,0.229,0.198,0.327,0.345C50.331,34.002,50.298,35.803,49.632,37.083z"/>
	</g>
</g>
</svg>
