<?xml version="1.0" encoding="utf-8"?>
<!-- Generator: Adobe Illustrator 17.0.0, SVG Export Plug-In . SVG Version: 6.00 Build 0)  -->
<!DOCTYPE svg PUBLIC "-//W3C//DTD SVG 1.1//EN" "http://www.w3.org/Graphics/SVG/1.1/DTD/svg11.dtd">
<svg version="1.1" id="Layer_1" xmlns="http://www.w3.org/2000/svg" xmlns:xlink="http://www.w3.org/1999/xlink" x="0px" y="0px"
	 width="21px" height="21px" viewBox="0 0 21 21" style="enable-background:new 0 0 21 21;" xml:space="preserve">
<style type="text/css">
	.st0{fill:#AF923B;}
</style>
<g>
	<g>
		<path class="st0" d="M20.178,6.309c-0.024-0.022-0.039-0.036-0.07-0.058l-2.374-1.71c-0.894-0.642-2.364-1.703-3.253-2.345
			l-2.374-1.71c-0.891-0.647-2.359-0.647-3.256,0l-2.369,1.71C5.588,2.837,4.12,3.898,3.222,4.54L0.848,6.25
			c-0.242,0.182-0.4,0.346-0.492,0.497C0.133,7.05,0,7.42,0,7.823v10.428c0,1.008,0.814,1.824,1.824,1.824h17.34
			c1.01,0,1.824-0.816,1.824-1.824V7.823C20.988,7.188,20.673,6.635,20.178,6.309z M19.636,19.152l-0.104-0.073
			c-0.114,0.051-0.235,0.085-0.368,0.085H1.824c-0.104,0-0.201-0.027-0.295-0.061l-0.158,0.109
			c-0.281,0.198-0.736,0.068-1.175-0.284l0.652-0.458l0.099-0.065c-0.01-0.053-0.032-0.095-0.032-0.153V8.358L0.814,8.285
			C0.562,8.106,0.407,7.939,0.315,7.789c-0.032-0.041-0.048-0.08-0.077-0.121V7.205h0.785c0.005,0.015,0.017,0.032,0.024,0.041
			l0.024,0.039l0.012,0.014c0.005,0,0.005-0.005,0.007-0.01l0.029-0.036L1.143,7.21c0-0.002,0.044-0.085,0.247-0.218l2.364-1.718
			l2.292-1.64l0.969-0.705l2.374-1.708c0.271-0.196,0.669-0.31,1.09-0.31s0.819,0.114,1.095,0.31l2.369,1.708
			c0.896,0.649,2.359,1.705,3.256,2.345l2.376,1.718l0.046,0.036l0.044,0.034c0.078,0.046,0.116,0.124,0.172,0.184
			c0.012-0.014,0.027-0.024,0.041-0.041h0.872V7.52c-0.143,0.286-0.354,0.533-0.61,0.707c-0.027,0.02-0.044,0.039-0.063,0.053v9.973
			c0,0.032-0.019,0.058-0.019,0.085l0.102,0.068c0,0,0,0,0.005,0l0.654,0.465C20.375,19.213,19.917,19.346,19.636,19.152z"/>
		<path class="st0" d="M1.083,7.299L1.071,7.285L1.046,7.246c-0.007-0.01-0.019-0.027-0.024-0.041H0.237v0.463
			c0.029,0.041,0.046,0.08,0.077,0.121c0.092,0.15,0.247,0.317,0.499,0.497l0.102,0.073V7.823C0.916,7.587,1.003,7.413,1.083,7.299z
			"/>
		<path class="st0" d="M20.077,8.28c0.019-0.014,0.036-0.034,0.063-0.053c0.257-0.174,0.468-0.421,0.61-0.707V7.205h-0.872
			c-0.014,0.017-0.029,0.027-0.041,0.041c0.138,0.167,0.24,0.359,0.24,0.577V8.28z"/>
		<path class="st0" d="M6.441,12.343l1.565,1.131l0.126-0.087c0-0.002,0-0.002,0.005-0.002l0.652-0.46
			c0.15,0.458,0.143,0.858-0.032,1.088l0.051,0.041c0.891,0.647,2.362,0.647,3.258,0l0.167-0.126
			c-0.16-0.237-0.162-0.625-0.014-1.068l0.659,0.458l0.104,0.075l1.456-1.049c0.892-0.647,2.359-1.7,3.256-2.35l2.371-1.708
			c0.002-0.002,0.007-0.005,0.012-0.005V7.823c0-0.218-0.102-0.41-0.24-0.577c-0.056,0.09-0.124,0.167-0.211,0.225l-0.051,0.036
			l-0.046,0.041l-2.371,1.708c-0.356,0.254-0.812,0.586-1.281,0.921l0,0c-0.233,0.172-0.47,0.342-0.705,0.513
			c-0.463,0.329-0.913,0.657-1.267,0.913l-2.374,1.708c-0.274,0.204-0.673,0.31-1.092,0.31c-0.424,0-0.821-0.106-1.097-0.31
			l-2.374-1.708l-0.964-0.7L3.711,9.257L1.342,7.549C1.143,7.406,1.1,7.326,1.1,7.324L1.083,7.299
			c-0.08,0.114-0.167,0.288-0.167,0.523v0.535l2.267,1.635C4.077,10.642,5.538,11.696,6.441,12.343z"/>
		<path class="st0" d="M0.947,18.406l-0.099,0.065l-0.652,0.458c0.438,0.351,0.894,0.482,1.175,0.284l0.158-0.109
			C1.218,18.997,1.003,18.731,0.947,18.406z"/>
		<path class="st0" d="M8.757,14.012l-0.751-0.538l-5.826,4.07l-1.233,0.862c0.056,0.324,0.271,0.591,0.581,0.698l7.127-4.973
			C8.701,14.101,8.725,14.055,8.757,14.012z"/>
		<path class="st0" d="M8.788,12.924l-0.652,0.46c-0.005,0-0.005,0-0.005,0.002l-0.126,0.087l0.751,0.538
			C8.931,13.782,8.939,13.382,8.788,12.924z"/>
		<path class="st0" d="M20.159,18.406l-0.102-0.068c-0.034,0.329-0.235,0.608-0.526,0.741l0.104,0.073
			c0.281,0.194,0.739,0.061,1.182-0.281l-0.654-0.465C20.159,18.406,20.159,18.406,20.159,18.406z"/>
		<path class="st0" d="M20.057,18.338l-5.853-4.089l-1.223-0.858l-0.749,0.535c0.036,0.051,0.068,0.102,0.116,0.136l7.182,5.017
			C19.823,18.946,20.023,18.668,20.057,18.338z"/>
		<path class="st0" d="M12.219,12.859c-0.148,0.443-0.145,0.831,0.014,1.068l0.749-0.535l-0.104-0.075L12.219,12.859z"/>
		<path class="st0" d="M14.505,7.273H6.521c-0.756,0-1.369,0.608-1.369,1.361v1.63l0.87,0.625l0.969,0.7l2.367,1.705
			c0.284,0.203,0.681,0.315,1.097,0.315s0.816-0.112,1.09-0.315l2.379-1.705c0.349-0.252,0.792-0.569,1.247-0.899
			c0.235-0.172,0.47-0.337,0.705-0.513V8.634C15.876,7.881,15.266,7.273,14.505,7.273z"/>
		<path class="st0" d="M15.876,10.177L15.876,10.177c-0.235,0.177-0.47,0.342-0.705,0.513
			C15.406,10.519,15.644,10.349,15.876,10.177z"/>
	</g>
</g>
</svg>
