<?xml version="1.0" encoding="utf-8"?>
<!-- Generator: Adobe Illustrator 17.0.0, SVG Export Plug-In . SVG Version: 6.00 Build 0)  -->
<!DOCTYPE svg PUBLIC "-//W3C//DTD SVG 1.1//EN" "http://www.w3.org/Graphics/SVG/1.1/DTD/svg11.dtd">
<svg version="1.1" id="Layer_1" xmlns="http://www.w3.org/2000/svg" xmlns:xlink="http://www.w3.org/1999/xlink" x="0px" y="0px"
	 width="21px" height="21px" viewBox="0 0 21 21" style="enable-background:new 0 0 21 21;" xml:space="preserve">
<style type="text/css">
	.st0{fill:#272425;}
</style>
<g>
	<path class="st0" d="M19.717,19.972H1.284c-0.704,0-1.277-0.574-1.277-1.277V7.122c0-0.704,0.574-1.276,1.277-1.276h18.433
		c0.704,0,1.277,0.572,1.277,1.276v11.573C20.994,19.398,20.421,19.972,19.717,19.972L19.717,19.972z M1.137,6.933l-0.08,11.871
		l18.806,0.08c0.041,0,0.08-0.039,0.08-0.08V7.014L1.137,6.933L1.137,6.933z"/>
	<path class="st0" d="M8.223,6.81V5.622c0-0.402,0.327-0.728,0.729-0.728h3.096c0.402,0,0.729,0.325,0.729,0.728V6.81h1.197V5.622
		c0-1.061-0.864-1.925-1.926-1.925H8.952c-1.063,0-1.926,0.864-1.926,1.925V6.81H8.223z"/>
	<g>
		<g>
			<path class="st0" d="M9.207,0.523c-0.147,0-0.267,0.12-0.267,0.266v4.195c0,0.147,0.12,0.266,0.267,0.266h2.586
				c0.147,0,0.266-0.12,0.266-0.266V0.789c0-0.147-0.12-0.266-0.266-0.266H9.207z M10.501,3.058c-0.514,0-0.928-0.416-0.928-0.927
				c0-0.512,0.413-0.928,0.928-0.928c0.512,0,0.925,0.416,0.925,0.928C11.427,2.642,11.013,3.058,10.501,3.058z"/>
		</g>
	</g>
	<g>
		<g>
			<circle class="st0" cx="6.222" cy="10.771" r="2.018"/>
			<path class="st0" d="M9.784,16.706c0,0,0,0,0-0.002c0-1.967-1.593-3.565-3.562-3.565c-1.968,0-3.562,1.597-3.562,3.565
				c0,0.002,0,0.002,0,0.002H9.784z"/>
		</g>
		<g>
			<rect x="11.324" y="11.88" class="st0" width="7.02" height="1.974"/>
			<rect x="11.324" y="14.732" class="st0" width="7.02" height="1.974"/>
		</g>
	</g>
</g>
</svg>
