<?xml version="1.0" encoding="utf-8"?>
<!-- Generator: Adobe Illustrator 17.0.0, SVG Export Plug-In . SVG Version: 6.00 Build 0)  -->
<!DOCTYPE svg PUBLIC "-//W3C//DTD SVG 1.1//EN" "http://www.w3.org/Graphics/SVG/1.1/DTD/svg11.dtd">
<svg version="1.1" id="Layer_1" xmlns="http://www.w3.org/2000/svg" xmlns:xlink="http://www.w3.org/1999/xlink" x="0px" y="0px"
	 width="43px" height="85px" viewBox="0 0 43 85" style="enable-background:new 0 0 43 85;" xml:space="preserve">
<style type="text/css">
	.Arched_x0020_Green{fill:url(#SVGID_1_);stroke:#FFFFFF;stroke-width:0.25;stroke-miterlimit:1;}
	.st0{fill:url(#SVGID_2_);}
	.st1{filter:url(#Adobe_OpacityMaskFilter);}
	.st2{filter:url(#Adobe_OpacityMaskFilter_1_);}
	.st3{mask:url(#SVGID_3_);fill:url(#SVGID_4_);}
	.st4{fill:url(#SVGID_5_);}
	.st5{fill:url(#SVGID_6_);}
	.st6{filter:url(#Adobe_OpacityMaskFilter_2_);}
	.st7{filter:url(#Adobe_OpacityMaskFilter_3_);}
	.st8{mask:url(#SVGID_7_);fill:url(#SVGID_8_);}
	.st9{fill:url(#SVGID_9_);}
	.st10{fill:url(#SVGID_10_);}
	.st11{fill:#BF952E;}
</style>
<linearGradient id="SVGID_1_" gradientUnits="userSpaceOnUse" x1="0" y1="113.3896" x2="0.7071" y2="112.6825">
	<stop  offset="0" style="stop-color:#1EAB4B"/>
	<stop  offset="0.9831" style="stop-color:#19361A"/>
</linearGradient>
<g>
	<g>
		<linearGradient id="SVGID_2_" gradientUnits="userSpaceOnUse" x1="21.2008" y1="56.1234" x2="21.2008" y2="-2.791876e-08">
			<stop  offset="0.0056" style="stop-color:#FAC826"/>
			<stop  offset="0.2528" style="stop-color:#FFFACB"/>
			<stop  offset="0.3048" style="stop-color:#F8EEBA"/>
			<stop  offset="0.408" style="stop-color:#E7D08D"/>
			<stop  offset="0.5516" style="stop-color:#CBA145"/>
			<stop  offset="0.5955" style="stop-color:#C2912E"/>
			<stop  offset="0.8708" style="stop-color:#EDD688"/>
			<stop  offset="1" style="stop-color:#FFFACB"/>
		</linearGradient>
		<path class="st0" d="M18.221,33.933c0.311,0.1,0.435,0.273,0.467,1.389L18.679,52.21c0.005,2.162,1.756,3.913,3.918,3.913
			c2.161-0.002,3.911-1.756,3.908-3.918l0.003-22.142c0.074-0.83-0.266-1.596,1.491-1.354l10.382,1.915
			c1.829,0.361,3.599-0.836,3.958-2.661c0.353-1.828-0.839-3.598-2.668-3.958l-12.523-2.153c0,0-2.209-3.093-0.082-3.53
			c3.563-0.301,6.775-2.685,7.951-6.299c1.57-4.819-1.061-9.997-5.88-11.567c-4.817-1.574-9.998,1.058-11.573,5.875
			c-1.176,3.611,0.009,7.431,2.711,9.776c1.46,1.612-2.148,2.804-2.148,2.804L6.744,13.266c-1.685-0.79-3.696-0.064-4.482,1.622
			c-0.791,1.689-0.064,3.697,1.621,4.484l9.515,4.577c1.566,0.837,0.837,1.257,0.409,1.972L0.754,43.805
			c-1.277,1.747-0.893,4.192,0.851,5.469c1.742,1.274,4.194,0.894,5.469-0.85l9.951-13.644
			C17.708,33.894,17.913,33.83,18.221,33.933"/>
		<g>
			<defs>
				<filter id="Adobe_OpacityMaskFilter" filterUnits="userSpaceOnUse" x="5.006" y="82.176" width="36.565" height="1.167">
					<feFlood  style="flood-color:white;flood-opacity:1" result="back"/>
					<feBlend  in="SourceGraphic" in2="back" mode="normal"/>
				</filter>
			</defs>
			<mask maskUnits="userSpaceOnUse" x="5.006" y="82.176" width="36.565" height="1.167" id="SVGID_3_">
				<g class="st1">
					<defs>
						<filter id="Adobe_OpacityMaskFilter_1_" filterUnits="userSpaceOnUse" x="5.006" y="82.176" width="36.565" height="1.167">
							<feFlood  style="flood-color:white;flood-opacity:1" result="back"/>
							<feBlend  in="SourceGraphic" in2="back" mode="normal"/>
						</filter>
					</defs>
					<mask maskUnits="userSpaceOnUse" x="5.006" y="82.176" width="36.565" height="1.167" id="SVGID_3_">
						<g class="st2">
						</g>
					</mask>
					
						<radialGradient id="SVGID_4_" cx="23.2889" cy="-62.99" r="18.2585" gradientTransform="matrix(1 0 0 0.032 0 84.7753)" gradientUnits="userSpaceOnUse">
						<stop  offset="0" style="stop-color:#FFFFFF"/>
						<stop  offset="1" style="stop-color:#000000"/>
					</radialGradient>
					<ellipse class="st3" cx="23.289" cy="82.759" rx="18.282" ry="0.584"/>
				</g>
			</mask>
			
				<radialGradient id="SVGID_5_" cx="23.2889" cy="-62.99" r="18.2585" gradientTransform="matrix(1 0 0 0.032 0 84.7753)" gradientUnits="userSpaceOnUse">
				<stop  offset="0" style="stop-color:#231F20"/>
				<stop  offset="1" style="stop-color:#231F20"/>
			</radialGradient>
			<ellipse class="st4" cx="23.289" cy="82.759" rx="18.282" ry="0.584"/>
		</g>
		<linearGradient id="SVGID_6_" gradientUnits="userSpaceOnUse" x1="9.1244" y1="82.9075" x2="36.6848" y2="55.3471">
			<stop  offset="0.0056" style="stop-color:#DEE2E5"/>
			<stop  offset="0.2528" style="stop-color:#FFFCE4"/>
			<stop  offset="0.3953" style="stop-color:#F0EBD7"/>
			<stop  offset="0.5955" style="stop-color:#D5CCC0"/>
			<stop  offset="0.7865" style="stop-color:#EDEDEE"/>
		</linearGradient>
		<rect x="9.125" y="55.347" class="st5" width="27.56" height="27.561"/>
		<g>
			<defs>
				<filter id="Adobe_OpacityMaskFilter_2_" filterUnits="userSpaceOnUse" x="18.679" y="49.133" width="7.827" height="6.99">
					<feFlood  style="flood-color:white;flood-opacity:1" result="back"/>
					<feBlend  in="SourceGraphic" in2="back" mode="normal"/>
				</filter>
			</defs>
			<mask maskUnits="userSpaceOnUse" x="18.679" y="49.133" width="7.827" height="6.99" id="SVGID_7_">
				<g class="st6">
					<defs>
						<filter id="Adobe_OpacityMaskFilter_3_" filterUnits="userSpaceOnUse" x="18.679" y="49.133" width="7.827" height="6.99">
							<feFlood  style="flood-color:white;flood-opacity:1" result="back"/>
							<feBlend  in="SourceGraphic" in2="back" mode="normal"/>
						</filter>
					</defs>
					<mask maskUnits="userSpaceOnUse" x="18.679" y="49.133" width="7.827" height="6.99" id="SVGID_7_">
						<g class="st7">
						</g>
					</mask>
					<linearGradient id="SVGID_8_" gradientUnits="userSpaceOnUse" x1="22.5926" y1="56.1234" x2="22.5926" y2="49.1332">
						<stop  offset="0" style="stop-color:#828282"/>
						<stop  offset="0.5879" style="stop-color:#000000"/>
					</linearGradient>
					<path class="st8" d="M18.682,49.133l-0.002,3.077c0.005,2.162,1.756,3.913,3.918,3.913c2.161-0.002,3.911-1.756,3.908-3.918
						v-3.072H18.682z"/>
				</g>
			</mask>
			<linearGradient id="SVGID_9_" gradientUnits="userSpaceOnUse" x1="22.5926" y1="56.1234" x2="22.5926" y2="49.1332">
				<stop  offset="0" style="stop-color:#715939"/>
				<stop  offset="0.5879" style="stop-color:#C39960"/>
			</linearGradient>
			<path class="st9" d="M18.682,49.133l-0.002,3.077c0.005,2.162,1.756,3.913,3.918,3.913c2.161-0.002,3.911-1.756,3.908-3.918
				v-3.072H18.682z"/>
		</g>
		<linearGradient id="SVGID_10_" gradientUnits="userSpaceOnUse" x1="9.1246" y1="55.974" x2="36.6847" y2="55.974">
			<stop  offset="0.0056" style="stop-color:#FAC826"/>
			<stop  offset="0.2528" style="stop-color:#FFFACB"/>
			<stop  offset="0.3048" style="stop-color:#F8EEBA"/>
			<stop  offset="0.408" style="stop-color:#E7D08D"/>
			<stop  offset="0.5516" style="stop-color:#CBA145"/>
			<stop  offset="0.5955" style="stop-color:#C2912E"/>
			<stop  offset="0.8708" style="stop-color:#EDD688"/>
			<stop  offset="1" style="stop-color:#FFFACB"/>
		</linearGradient>
		<rect x="9.125" y="55.347" class="st10" width="27.56" height="1.254"/>
		<g>
			<g>
				<path class="st11" d="M14.617,60.441l-0.414,0.414c-0.025,0.024-0.04,0.061-0.04,0.1v0.701h0.278v-0.77
					c0-0.114,0.094-0.208,0.21-0.208h0.767V60.4h-0.702C14.678,60.4,14.642,60.415,14.617,60.441z"/>
				<path class="st11" d="M20.434,62.87c-0.002-0.016-0.004-0.026-0.007-0.037c-0.006-0.025-0.01-0.052-0.018-0.072
					c-0.004-0.016-0.01-0.029-0.015-0.039c-0.009-0.018-0.016-0.037-0.027-0.055c-0.008-0.011-0.015-0.021-0.024-0.031
					c-0.004-0.006-0.008-0.014-0.012-0.019l0.002,0.003c0-0.003-0.002-0.003-0.002-0.003c-0.007-0.008-0.017-0.016-0.024-0.023
					c-0.005-0.003-0.009-0.011-0.014-0.016c0.001,0.003,0.004,0.008,0.005,0.011c-0.006-0.006-0.013-0.014-0.019-0.016
					c-0.006-0.006-0.011-0.011-0.018-0.016c-0.02-0.014-0.043-0.026-0.068-0.034c-0.006-0.003-0.012-0.005-0.019-0.008
					c-0.026-0.011-0.057-0.019-0.088-0.023c-0.006-0.003-0.011-0.005-0.017-0.005c-0.039-0.006-0.082-0.008-0.128-0.008
					c-0.159,0-0.297,0.049-0.413,0.117l0.012,0.197l0,0l0,0c0.093-0.08,0.234-0.13,0.364-0.13c0.027,0,0.05,0.003,0.073,0.005
					c0.007,0,0.014,0.003,0.022,0.006c0.014,0,0.027,0.002,0.038,0.008c0.009,0.002,0.017,0.005,0.024,0.008
					c0.01,0.005,0.02,0.008,0.028,0.013c0.007,0.005,0.015,0.008,0.021,0.013c0.021,0.016,0.039,0.034,0.053,0.061
					c0.006,0.008,0.011,0.016,0.018,0.025c0.002,0.008,0.005,0.016,0.008,0.023c0.004,0.011,0.007,0.021,0.01,0.029
					c0.002,0.013,0.005,0.025,0.006,0.039c0.003,0.008,0.005,0.016,0.007,0.025c0.002,0.024,0.002,0.048,0.002,0.076
					c-0.092-0.005-0.155-0.005-0.246-0.005l0,0l0,0c-0.238,0-0.582,0.099-0.582,0.411c0,0.008,0.001,0.016,0.001,0.02
					c0.001,0.026,0.002,0.053,0.006,0.073c0.004,0.016,0.009,0.031,0.014,0.044c0.004,0.014,0.007,0.026,0.011,0.037
					c0.007,0.016,0.017,0.028,0.025,0.042c0.004,0.01,0.008,0.018,0.013,0.024c0.004,0.005,0.008,0.01,0.012,0.013
					c0,0-0.001,0-0.002,0c0.002,0.003,0.006,0.003,0.008,0.005c0.006,0.008,0.013,0.016,0.021,0.024
					c0.003,0.006,0.006,0.008,0.012,0.014c-0.001,0-0.001-0.003-0.001-0.003c0.006,0.005,0.016,0.011,0.024,0.019
					c0.007,0.002,0.015,0.008,0.021,0.013c0.02,0.011,0.04,0.021,0.06,0.028c0.009,0.006,0.019,0.008,0.029,0.011
					c0.021,0.008,0.045,0.013,0.069,0.019c0.01,0,0.019,0.002,0.03,0.005c0.033,0.005,0.07,0.008,0.108,0.008l0,0l0,0
					c0.098,0,0.173-0.021,0.24-0.06c0.005-0.003,0.011-0.006,0.016-0.008l0,0c0.053-0.034,0.092-0.073,0.119-0.107
					c0.005-0.008,0.01-0.01,0.016-0.018h0.002v0.161l0,0h0.207l0,0v-0.766c0-0.003,0-0.003,0-0.008
					C20.44,62.948,20.438,62.906,20.434,62.87z M19.665,63.51c-0.009-0.011-0.015-0.026-0.021-0.039
					c-0.001-0.003-0.002-0.008-0.005-0.013c-0.005-0.016-0.009-0.034-0.009-0.055c0-0.225,0.31-0.245,0.435-0.245
					c0.049,0,0.098,0.005,0.147,0.005v0.112c0,0.188-0.121,0.331-0.349,0.331c-0.013,0-0.025,0-0.04-0.003
					c-0.007-0.002-0.015-0.002-0.022-0.005c-0.008-0.003-0.013-0.003-0.019-0.005c-0.009-0.003-0.018-0.006-0.028-0.008
					c-0.004-0.003-0.008-0.003-0.011-0.006c-0.01-0.005-0.018-0.013-0.027-0.019C19.697,63.546,19.679,63.531,19.665,63.51z"/>
				<path class="st11" d="M17.843,61.512c0.005-0.008,0.011-0.011,0.016-0.016h0.003v0.159h0.206v-0.77
					c0-0.044-0.004-0.086-0.009-0.125c-0.001-0.013-0.005-0.025-0.008-0.039c-0.004-0.025-0.008-0.049-0.016-0.072
					c-0.005-0.014-0.01-0.024-0.016-0.037c-0.007-0.018-0.015-0.036-0.026-0.055c-0.006-0.01-0.016-0.021-0.022-0.031
					c-0.005-0.005-0.008-0.013-0.013-0.018c0.001,0.002,0.001,0.002,0.002,0.002c-0.001,0-0.002-0.002-0.004-0.002
					c-0.006-0.011-0.015-0.016-0.024-0.023c-0.005-0.006-0.008-0.011-0.014-0.016c0.002,0.002,0.003,0.005,0.006,0.008
					c-0.006-0.003-0.011-0.011-0.019-0.016c-0.006-0.003-0.011-0.011-0.017-0.016c-0.021-0.014-0.044-0.021-0.065-0.031
					c-0.009-0.003-0.015-0.008-0.024-0.011c-0.024-0.011-0.052-0.016-0.081-0.021c-0.009,0-0.016-0.006-0.025-0.006
					c-0.039-0.005-0.081-0.008-0.127-0.008c-0.16,0-0.296,0.047-0.412,0.117l0.012,0.198c0.094-0.081,0.233-0.13,0.363-0.13
					c0.027,0,0.051,0.002,0.074,0.002c0.008,0.003,0.016,0.006,0.022,0.006c0.013,0.002,0.026,0.005,0.038,0.01
					c0.008,0.003,0.015,0.006,0.024,0.011c0.009,0.003,0.018,0.008,0.027,0.011c0.006,0.005,0.014,0.008,0.021,0.013
					c0.022,0.016,0.04,0.034,0.054,0.058c0.005,0.01,0.011,0.018,0.016,0.028c0.004,0.005,0.005,0.016,0.008,0.023
					c0.004,0.011,0.008,0.021,0.01,0.031c0.003,0.011,0.005,0.023,0.007,0.036c0.001,0.008,0.004,0.016,0.005,0.026
					c0.003,0.023,0.003,0.047,0.003,0.073c-0.091-0.006-0.154-0.006-0.245-0.006c-0.239,0-0.582,0.1-0.582,0.415
					c0,0.033,0.002,0.065,0.008,0.094c0.002,0.013,0.008,0.025,0.012,0.036c0.004,0.016,0.006,0.031,0.013,0.044
					c0.005,0.016,0.015,0.029,0.021,0.039c0.007,0.011,0.011,0.021,0.017,0.029c0.004,0.002,0.007,0.008,0.011,0.01
					c-0.001,0-0.001,0-0.003,0c0.003,0.003,0.005,0.006,0.008,0.008c0.005,0.006,0.012,0.011,0.017,0.016
					c0.006,0.006,0.01,0.014,0.016,0.019c-0.001-0.003-0.001-0.003-0.001-0.003c0.008,0.006,0.015,0.014,0.024,0.019
					c0.007,0.005,0.014,0.008,0.021,0.013c0.02,0.011,0.039,0.021,0.06,0.029c0.009,0.003,0.018,0.008,0.028,0.011
					c0.021,0.005,0.043,0.01,0.069,0.016c0.011,0.002,0.02,0.005,0.029,0.005c0.035,0.005,0.071,0.008,0.109,0.008
					c0.097,0,0.173-0.021,0.238-0.058C17.769,61.592,17.813,61.551,17.843,61.512z M17.289,61.4
					c-0.008-0.011-0.014-0.021-0.02-0.036c-0.001-0.006-0.004-0.008-0.005-0.014c-0.005-0.016-0.01-0.036-0.01-0.057
					c0-0.219,0.31-0.242,0.437-0.242c0.048,0,0.097,0.005,0.146,0.005v0.109c0,0.19-0.121,0.333-0.349,0.333
					c-0.013,0-0.027,0-0.041-0.002c-0.003,0-0.005,0-0.01-0.003c-0.01-0.003-0.019-0.003-0.03-0.008
					c-0.004-0.003-0.008-0.003-0.014-0.005c-0.008-0.003-0.016-0.006-0.025-0.011c-0.008-0.005-0.014-0.011-0.021-0.016
					C17.323,61.442,17.304,61.423,17.289,61.4z"/>
				<path class="st11" d="M21.954,61.325c0,0.031,0.001,0.06,0.005,0.086c0.001,0.008,0.004,0.013,0.006,0.021
					c0.004,0.02,0.009,0.042,0.016,0.058c0.003,0.008,0.006,0.01,0.01,0.016c0.008,0.018,0.016,0.033,0.026,0.049
					c0.004,0.006,0.008,0.008,0.012,0.014c0.001,0,0.001,0.002,0.002,0.002c-0.001,0-0.004-0.002-0.005-0.002
					c0.004,0.002,0.008,0.008,0.011,0.01c0.01,0.008,0.019,0.022,0.028,0.029c0,0,0.002,0,0.003,0.002
					c-0.001,0-0.001-0.002-0.001-0.002c0.002,0.002,0.005,0.005,0.009,0.005c0.006,0.005,0.012,0.008,0.018,0.013
					c0.016,0.011,0.031,0.019,0.047,0.026c0.007,0.003,0.015,0.006,0.024,0.008c0.018,0.008,0.036,0.011,0.057,0.016
					c0.007,0,0.015,0.003,0.024,0.003c0.029,0.005,0.059,0.008,0.092,0.008c0.075,0,0.146-0.019,0.198-0.031v-0.198
					c-0.036,0.023-0.087,0.044-0.158,0.044c-0.018,0-0.035-0.002-0.051-0.005c-0.004-0.003-0.007-0.003-0.012-0.005
					c-0.015-0.006-0.031-0.011-0.044-0.021c-0.016-0.013-0.029-0.025-0.041-0.041c-0.007-0.011-0.014-0.019-0.019-0.029
					l-0.001-0.002c-0.005-0.011-0.008-0.021-0.012-0.031c-0.002-0.006-0.003-0.011-0.004-0.016
					c-0.002-0.008-0.005-0.016-0.006-0.023c-0.002-0.016-0.004-0.034-0.004-0.05v-0.688h0.333V60.4h-0.333l0,0v-0.365l-0.229,0.075
					v0.29H21.67v0.188h0.284V61.325z"/>
				<path class="st11" d="M20.86,60.842c0.004,0.013,0.009,0.026,0.015,0.039c0.002,0.003,0.006,0.011,0.01,0.019
					c0.007,0.01,0.014,0.017,0.021,0.028c0.002,0.005,0.005,0.011,0.008,0.013c0,0-0.001,0-0.001-0.002
					c0.001,0.002,0.005,0.008,0.009,0.01c0.008,0.011,0.016,0.019,0.024,0.024c0,0,0,0,0.001,0c0.003,0.005,0.005,0.005,0.007,0.008
					l0,0c0.004,0.002,0.008,0.005,0.01,0.008c0.008,0.008,0.018,0.016,0.028,0.023c0.007,0.005,0.013,0.01,0.019,0.013
					c0.011,0.008,0.022,0.013,0.032,0.018c0.007,0.005,0.014,0.008,0.021,0.013c0.01,0.005,0.022,0.011,0.031,0.019
					c0.043,0.021,0.084,0.041,0.125,0.06c0.005,0.003,0.009,0.005,0.014,0.008c0.012,0.008,0.024,0.013,0.035,0.019
					c0.005,0.005,0.01,0.008,0.016,0.013c0.01,0.003,0.018,0.011,0.026,0.016c0.021,0.016,0.036,0.031,0.05,0.05
					c0.006,0.008,0.011,0.018,0.015,0.031c0.002,0.002,0.004,0.005,0.004,0.008c0.005,0.01,0.008,0.025,0.008,0.044
					c0,0.133-0.13,0.177-0.236,0.177c-0.065,0-0.195-0.028-0.287-0.088l-0.013,0.205c0.107,0.058,0.227,0.068,0.345,0.068
					c0.224,0,0.437-0.12,0.437-0.391c0-0.026-0.003-0.053-0.008-0.073c-0.001-0.008-0.004-0.016-0.005-0.021
					c-0.004-0.019-0.009-0.034-0.015-0.047c-0.004-0.008-0.006-0.014-0.01-0.021c-0.008-0.01-0.015-0.023-0.023-0.033
					c-0.004-0.006-0.008-0.011-0.012-0.016c0,0,0,0-0.002,0c0.002,0,0.003,0,0.003,0.002c-0.001-0.002-0.003-0.005-0.004-0.005
					c-0.01-0.013-0.021-0.021-0.031-0.031h0c-0.003-0.003-0.004-0.005-0.005-0.005l0,0c-0.001-0.003-0.002-0.003-0.005-0.006
					c-0.013-0.01-0.025-0.018-0.038-0.028c-0.004,0-0.006-0.005-0.01-0.005c-0.015-0.011-0.029-0.018-0.046-0.026
					c-0.001-0.003-0.003-0.005-0.004-0.005c-0.018-0.009-0.036-0.017-0.053-0.024c-0.037-0.021-0.075-0.036-0.109-0.052
					c-0.001,0-0.001,0-0.003-0.003c-0.016-0.008-0.03-0.013-0.043-0.021c-0.004-0.003-0.006-0.005-0.01-0.008
					c-0.012-0.005-0.022-0.013-0.03-0.019c-0.021-0.016-0.037-0.031-0.05-0.049c-0.006-0.011-0.012-0.021-0.017-0.031
					c-0.002-0.003-0.003-0.006-0.004-0.011c-0.005-0.016-0.007-0.031-0.007-0.047c0-0.104,0.103-0.153,0.221-0.153
					c0.054,0,0.191,0.033,0.244,0.064l0.021-0.203c-0.092-0.025-0.182-0.047-0.29-0.047c-0.247,0-0.442,0.123-0.442,0.383
					c0,0.026,0.002,0.047,0.007,0.068C20.856,60.829,20.858,60.834,20.86,60.842z"/>
				<path class="st11" d="M23.632,60.722c-0.005-0.025-0.01-0.049-0.018-0.072c-0.003-0.014-0.01-0.024-0.015-0.037
					c-0.008-0.018-0.017-0.036-0.027-0.055c-0.008-0.01-0.016-0.021-0.024-0.031c-0.004-0.005-0.008-0.01-0.012-0.018
					c0,0.002,0.001,0.002,0.003,0.002c-0.002,0-0.003-0.002-0.004-0.002c-0.006-0.011-0.016-0.016-0.023-0.023
					c-0.006-0.006-0.01-0.011-0.014-0.016c0.002,0.002,0.003,0.005,0.006,0.008c-0.007-0.003-0.014-0.011-0.02-0.016
					c-0.006-0.003-0.011-0.011-0.017-0.016c-0.021-0.014-0.043-0.021-0.066-0.031c-0.006-0.003-0.013-0.008-0.021-0.011
					c-0.025-0.011-0.053-0.016-0.081-0.021c-0.009,0-0.017-0.006-0.027-0.006c-0.039-0.005-0.079-0.008-0.127-0.008
					c-0.158,0-0.295,0.047-0.41,0.117l0.012,0.198c0.093-0.081,0.232-0.13,0.362-0.13c0.026,0,0.051,0.002,0.073,0.002
					c0.008,0.003,0.016,0.006,0.023,0.006c0.012,0.002,0.026,0.005,0.036,0.01c0.01,0.003,0.019,0.006,0.026,0.011
					c0.008,0.003,0.017,0.008,0.026,0.011c0.006,0.002,0.014,0.008,0.021,0.013c0.021,0.016,0.038,0.034,0.052,0.055
					c0.007,0.011,0.014,0.021,0.019,0.031c0.003,0.005,0.005,0.013,0.008,0.021c0.004,0.011,0.008,0.021,0.011,0.034
					c0.002,0.011,0.004,0.021,0.005,0.028c0.003,0.014,0.005,0.023,0.005,0.034c0.004,0.023,0.004,0.047,0.004,0.073
					c-0.09-0.006-0.153-0.006-0.243-0.006c-0.238,0-0.584,0.1-0.584,0.415c0,0.033,0.004,0.065,0.01,0.094
					c0.003,0.013,0.007,0.023,0.011,0.036c0.004,0.016,0.008,0.031,0.013,0.044c0.008,0.014,0.017,0.026,0.024,0.037
					c0.005,0.013,0.009,0.024,0.015,0.031c0.004,0.002,0.01,0.008,0.012,0.013c0-0.003-0.001-0.003-0.002-0.003
					c0.002,0.003,0.006,0.006,0.008,0.008c0.006,0.006,0.011,0.011,0.016,0.016c0.006,0.006,0.011,0.014,0.018,0.019
					c-0.002-0.003-0.002-0.003-0.003-0.003c0.008,0.006,0.017,0.014,0.024,0.019c0.008,0.005,0.016,0.008,0.023,0.013
					c0.018,0.011,0.037,0.021,0.058,0.029c0.009,0.003,0.018,0.008,0.027,0.011c0.022,0.005,0.046,0.01,0.07,0.016
					c0.01,0.002,0.019,0.005,0.028,0.005c0.035,0.005,0.07,0.008,0.109,0.008c0.094,0,0.17-0.021,0.235-0.058
					c0.063-0.034,0.11-0.078,0.141-0.12c0.005-0.002,0.008-0.008,0.012-0.01h0.004v0.159h0.205v-0.77
					c0-0.044-0.002-0.086-0.008-0.125C23.639,60.748,23.635,60.736,23.632,60.722z M22.871,61.4
					c-0.008-0.011-0.014-0.021-0.021-0.036c-0.001-0.006-0.004-0.008-0.004-0.014c-0.007-0.016-0.01-0.036-0.01-0.057
					c0-0.219,0.308-0.242,0.434-0.242c0.049,0,0.099,0.005,0.146,0.005v0.109c0,0.19-0.119,0.333-0.347,0.333
					c-0.014,0-0.027,0-0.041-0.002c-0.003,0-0.007,0-0.01-0.003c-0.01-0.003-0.02-0.003-0.029-0.008
					c-0.006,0-0.01-0.003-0.014-0.005c-0.01-0.003-0.02-0.006-0.027-0.011c-0.005-0.003-0.012-0.008-0.016-0.011
					C22.909,61.444,22.888,61.423,22.871,61.4z"/>
				<path class="st11" d="M18.484,61.077c0-0.31,0.118-0.52,0.382-0.52c0.027,0,0.053,0.005,0.077,0.013
					c0.006,0.003,0.013,0.005,0.019,0.008c0.016,0.008,0.029,0.016,0.043,0.021c0.023,0.016,0.041,0.037,0.058,0.058
					c0.008,0.013,0.015,0.028,0.022,0.039c0.004,0.011,0.007,0.019,0.01,0.026c0.005,0.016,0.01,0.031,0.016,0.052
					c0.001,0.008,0.004,0.019,0.005,0.028c0.005,0.019,0.007,0.042,0.01,0.065c0.001,0.008,0.003,0.019,0.003,0.028
					c0.002,0.034,0.004,0.07,0.004,0.11v0.651h0.229v-0.748c0-0.047-0.003-0.089-0.008-0.131c-0.002-0.01-0.004-0.023-0.006-0.033
					c-0.005-0.029-0.012-0.055-0.019-0.081c-0.004-0.011-0.008-0.021-0.013-0.031c-0.008-0.023-0.02-0.044-0.032-0.067
					c-0.004-0.008-0.011-0.018-0.018-0.026c-0.006-0.008-0.01-0.019-0.018-0.026c0.002,0,0.002,0,0.002,0
					c-0.01-0.01-0.021-0.018-0.03-0.028c-0.004-0.003-0.008-0.008-0.012-0.013c0.001,0.002,0.004,0.005,0.004,0.005
					c-0.076-0.067-0.178-0.109-0.319-0.104c-0.022,0-0.045,0.003-0.068,0.003c-0.083,0.011-0.156,0.034-0.223,0.086
					c-0.003,0.003-0.005,0.003-0.008,0.005c-0.007,0.006-0.013,0.011-0.018,0.016c-0.016,0.011-0.028,0.024-0.041,0.039
					c-0.001,0.003-0.003,0.003-0.004,0.006c-0.01,0.01-0.019,0.021-0.026,0.033c-0.01,0.014-0.019,0.026-0.028,0.039h0V60.4h-0.223
					v1.256h0.23V61.077z"/>
				<path class="st11" d="M16.583,61.084c0-0.315,0.134-0.513,0.342-0.513c0.039,0,0.086,0.005,0.128,0.023v-0.209
					c-0.049-0.01-0.083-0.016-0.152-0.016c-0.016,0-0.032,0.003-0.048,0.003c-0.004,0-0.007,0.003-0.01,0.003
					c-0.013,0.002-0.025,0.005-0.039,0.008c-0.002,0.002-0.006,0.002-0.01,0.005c-0.01,0.005-0.022,0.011-0.033,0.013
					c-0.005,0.003-0.009,0.006-0.013,0.008c-0.01,0.006-0.02,0.014-0.03,0.019c-0.004,0.003-0.007,0.005-0.011,0.008
					c-0.012,0.008-0.021,0.016-0.032,0.026c-0.003,0-0.005,0.002-0.006,0.005c-0.024,0.021-0.046,0.047-0.064,0.073l-0.035,0.055
					h-0.001V60.4h-0.215v1.256h0.23V61.084z"/>
				<path class="st11" d="M20.711,61.656v-1.845h-0.23v0.761h-0.004c-0.011-0.021-0.024-0.037-0.039-0.053l0,0
					c-0.001,0-0.001-0.002-0.003-0.002c-0.025-0.029-0.055-0.055-0.089-0.078c-0.004-0.003-0.009-0.006-0.015-0.008
					c-0.008-0.006-0.017-0.008-0.026-0.014c-0.008-0.002-0.017-0.008-0.025-0.01c-0.008-0.003-0.017-0.006-0.026-0.008
					c-0.011-0.006-0.02-0.008-0.03-0.011c-0.008-0.003-0.018-0.005-0.026-0.005c-0.013-0.006-0.028-0.006-0.041-0.008
					c-0.009,0-0.017-0.003-0.024-0.003c-0.022-0.003-0.047-0.003-0.073-0.003c-0.364,0-0.541,0.295-0.541,0.634
					c0,0.024,0.002,0.049,0.003,0.075c0,0.008,0.001,0.016,0.001,0.021c0.002,0.019,0.004,0.034,0.007,0.053
					c0.001,0.008,0.003,0.016,0.004,0.023c0.002,0.021,0.006,0.039,0.012,0.057c0.001,0.006,0.001,0.008,0.002,0.016
					c0.006,0.023,0.014,0.047,0.022,0.073c0,0,0,0,0.002,0c0.007,0.021,0.016,0.044,0.026,0.065c0.002,0.002,0.003,0.008,0.005,0.01
					c0.009,0.019,0.019,0.034,0.028,0.053c0.003,0.002,0.004,0.005,0.007,0.01c0.016,0.024,0.032,0.045,0.049,0.068l0,0
					c0.001,0,0.001,0,0.001,0c0.012,0.013,0.025,0.025,0.041,0.039l0,0l0,0c0.004,0.005,0.01,0.01,0.016,0.016
					c0.005,0.002,0.01,0.008,0.016,0.013c0.006,0.003,0.012,0.008,0.019,0.011c0.01,0.008,0.018,0.013,0.029,0.018
					c0.005,0.003,0.01,0.006,0.014,0.009c0.014,0.005,0.026,0.013,0.04,0.018c0.003,0,0.006,0.003,0.01,0.003
					c0.016,0.005,0.033,0.013,0.05,0.016c0.001,0,0.004,0,0.005,0.003c0.041,0.008,0.083,0.013,0.13,0.013
					c0.02,0,0.041,0,0.062-0.003c0.016-0.002,0.029-0.005,0.044-0.005c0.003-0.003,0.005-0.003,0.009-0.003
					c0.14-0.025,0.237-0.097,0.292-0.169c0.008-0.006,0.014-0.016,0.021-0.023h0.004v0.175H20.711z M20.375,60.689
					c0.011,0.013,0.022,0.028,0.03,0.044c0.006,0.011,0.012,0.018,0.017,0.028c0.009,0.019,0.015,0.037,0.021,0.055
					c0.004,0.011,0.008,0.021,0.012,0.031c0.006,0.019,0.01,0.039,0.014,0.062c0.002,0.008,0.005,0.016,0.006,0.026
					c0.003,0.031,0.006,0.062,0.006,0.094c0,0.209-0.109,0.469-0.369,0.469c-0.017,0-0.033,0-0.05-0.002
					c-0.004,0-0.008-0.003-0.014-0.003c-0.012-0.003-0.021-0.005-0.033-0.011c-0.004-0.002-0.009-0.002-0.014-0.005
					c-0.01-0.005-0.02-0.011-0.029-0.016c-0.004,0-0.008-0.003-0.012-0.005c-0.011-0.006-0.021-0.014-0.032-0.021
					c-0.015-0.016-0.031-0.028-0.045-0.047c-0.021-0.023-0.039-0.049-0.053-0.08c-0.001,0-0.001,0-0.001,0
					c-0.015-0.029-0.027-0.062-0.037-0.094l0,0c-0.01-0.034-0.016-0.062-0.02-0.094c-0.001-0.003-0.001-0.006-0.001-0.008
					c-0.005-0.031-0.006-0.062-0.005-0.092c-0.004-0.229,0.095-0.466,0.345-0.466c0.025,0,0.053,0.002,0.077,0.008
					c0.007,0.002,0.015,0.005,0.022,0.008c0.017,0.005,0.033,0.013,0.048,0.021c0.006,0.003,0.014,0.005,0.02,0.008
					C20.317,60.623,20.349,60.652,20.375,60.689z"/>
				<path class="st11" d="M24.765,59.811v0.761h-0.006c-0.01-0.021-0.024-0.037-0.039-0.053c0,0,0,0,0.002,0
					c-0.002,0-0.004-0.002-0.006-0.002c-0.023-0.029-0.053-0.055-0.086-0.076c-0.005-0.005-0.01-0.008-0.016-0.01
					c-0.008-0.006-0.017-0.008-0.025-0.014c-0.01-0.002-0.016-0.008-0.024-0.01c-0.01-0.003-0.018-0.006-0.026-0.008
					c-0.011-0.006-0.021-0.008-0.032-0.011c-0.01-0.003-0.018-0.005-0.026-0.005c-0.013-0.006-0.027-0.006-0.041-0.008
					c-0.008,0-0.016-0.003-0.023-0.003c-0.023-0.003-0.047-0.003-0.071-0.003c-0.364,0-0.542,0.295-0.542,0.634
					c0,0.024,0.002,0.049,0.003,0.075c0.001,0.008,0.001,0.016,0.003,0.021c0.002,0.019,0.004,0.034,0.006,0.053
					c0.002,0.008,0.003,0.016,0.003,0.023c0.004,0.021,0.008,0.039,0.011,0.057c0.001,0.006,0.002,0.008,0.004,0.016
					c0.006,0.023,0.014,0.047,0.022,0.073l0,0c0.008,0.021,0.019,0.044,0.027,0.065c0.002,0.002,0.004,0.008,0.006,0.01
					c0.009,0.019,0.02,0.034,0.029,0.053c0.003,0.002,0.004,0.005,0.007,0.01c0.015,0.024,0.03,0.045,0.048,0.068l0,0
					c0.003,0.002,0.007,0.005,0.01,0.008c0.01,0.01,0.021,0.023,0.033,0.031l0,0l0,0c0.003,0.002,0.006,0.008,0.008,0.01
					c0.01,0.006,0.018,0.014,0.025,0.019c0.002,0.003,0.009,0.008,0.014,0.011c0.011,0.005,0.023,0.013,0.033,0.018
					c0.004,0.003,0.008,0.006,0.012,0.009c0.014,0.005,0.028,0.013,0.043,0.018c0.001,0.003,0.005,0.003,0.008,0.003
					c0.017,0.005,0.033,0.013,0.052,0.016c0.001,0,0.003,0,0.003,0.003c0.041,0.008,0.083,0.013,0.131,0.013
					c0.019,0,0.039,0,0.062-0.003c0.014-0.002,0.029-0.005,0.042-0.005c0.003-0.003,0.007-0.003,0.01-0.003
					c0.139-0.025,0.236-0.097,0.294-0.169c0.007-0.006,0.013-0.016,0.019-0.023h0.004v0.175h0.22v-1.845H24.765z M24.659,60.689
					c0.009,0.013,0.02,0.028,0.029,0.044c0.006,0.011,0.012,0.018,0.016,0.028c0.008,0.019,0.016,0.037,0.022,0.055
					c0.003,0.011,0.008,0.021,0.011,0.031c0.006,0.019,0.012,0.039,0.016,0.062c0.001,0.008,0.004,0.016,0.005,0.026
					c0.004,0.031,0.007,0.062,0.007,0.094c0,0.209-0.108,0.469-0.369,0.469c-0.019,0-0.034,0-0.05-0.002
					c-0.005,0-0.01-0.003-0.016-0.006c-0.01,0-0.021-0.002-0.031-0.008c-0.005-0.002-0.009-0.002-0.014-0.005
					c-0.01-0.005-0.019-0.011-0.029-0.016c-0.004,0-0.008-0.003-0.012-0.005c-0.012-0.008-0.021-0.014-0.031-0.021
					c-0.017-0.016-0.033-0.031-0.045-0.047c-0.021-0.023-0.038-0.049-0.055-0.08l0,0c-0.03-0.061-0.05-0.125-0.059-0.188
					c0-0.003,0-0.006-0.002-0.008c-0.004-0.031-0.005-0.062-0.004-0.092c-0.004-0.229,0.094-0.466,0.344-0.466
					c0.027,0,0.053,0.002,0.079,0.008c0.006,0.002,0.014,0.005,0.022,0.008c0.017,0.005,0.034,0.013,0.047,0.021
					c0.008,0.003,0.016,0.005,0.022,0.008C24.599,60.623,24.63,60.652,24.659,60.689z"/>
				<polygon class="st11" points="19.067,62.739 18.859,63.419 18.582,62.51 18.554,62.51 18.55,62.51 18.549,62.51 18.361,62.51 
					18.361,62.51 18.336,62.51 18.061,63.419 17.79,62.528 17.784,62.51 17.553,62.51 17.553,62.51 17.549,62.51 17.795,63.318 
					17.928,63.766 18.191,63.763 18.46,62.877 18.73,63.763 18.989,63.763 19.371,62.51 19.131,62.51 				"/>
				<path class="st11" d="M17.392,62.835c-0.005-0.026-0.01-0.055-0.018-0.075c-0.004-0.016-0.011-0.026-0.016-0.037
					c-0.007-0.021-0.017-0.039-0.028-0.057c-0.006-0.011-0.014-0.021-0.021-0.031c-0.005-0.006-0.008-0.014-0.012-0.019
					c0,0.003,0.001,0.003,0.001,0.003c0-0.003-0.001-0.003-0.003-0.003c-0.008-0.008-0.016-0.016-0.024-0.023
					c-0.005-0.005-0.008-0.011-0.013-0.016c0.003,0.003,0.004,0.008,0.005,0.011c-0.007-0.008-0.015-0.014-0.021-0.019
					c-0.005-0.003-0.01-0.008-0.016-0.013c-0.021-0.014-0.045-0.026-0.07-0.037c-0.006,0-0.012-0.002-0.017-0.005
					c-0.028-0.011-0.059-0.019-0.092-0.023c-0.005-0.003-0.009-0.005-0.014-0.005c-0.04-0.006-0.083-0.008-0.13-0.008
					c-0.16,0-0.296,0.049-0.412,0.117l0.012,0.197c0.09-0.075,0.222-0.125,0.347-0.127c0.005-0.003,0.012-0.003,0.017-0.003h0.001
					c0.027,0,0.049,0.003,0.07,0.005c0.009,0,0.017,0.003,0.025,0.006c0.013,0,0.025,0.002,0.037,0.008
					c0.009,0.002,0.017,0.005,0.024,0.008c0.009,0.005,0.018,0.008,0.026,0.013c0.008,0.005,0.015,0.008,0.021,0.013
					c0.021,0.016,0.039,0.034,0.053,0.058c0.007,0.008,0.013,0.019,0.017,0.028c0.004,0.008,0.006,0.016,0.009,0.023
					c0.004,0.011,0.008,0.021,0.011,0.031c0.003,0.011,0.004,0.021,0.005,0.034c0.002,0.008,0.003,0.018,0.004,0.028
					c0.003,0.024,0.004,0.048,0.004,0.076c-0.089-0.005-0.154-0.005-0.246-0.005c-0.029,0-0.06,0-0.093,0.005
					c-0.226,0.023-0.489,0.13-0.489,0.406c0,0.034,0.002,0.065,0.009,0.097c0.001,0.01,0.006,0.021,0.008,0.028
					c0.004,0.019,0.008,0.036,0.016,0.05c0.006,0.013,0.015,0.026,0.023,0.042c0.005,0.008,0.009,0.018,0.014,0.024
					c0.004,0.005,0.008,0.01,0.012,0.013h-0.002c0.002,0.003,0.004,0.003,0.007,0.005c0.006,0.008,0.014,0.016,0.02,0.024
					c0.005,0.003,0.009,0.008,0.013,0.014c0,0,0-0.003-0.001-0.006c0.007,0.008,0.016,0.014,0.024,0.021
					c0.007,0.002,0.015,0.008,0.023,0.013c0.018,0.011,0.037,0.021,0.058,0.028c0.008,0.006,0.019,0.008,0.028,0.011
					c0.023,0.008,0.046,0.013,0.069,0.019c0.01,0,0.019,0.002,0.03,0.005c0.035,0.005,0.07,0.008,0.107,0.008l0,0l0,0l0,0l0,0
					c0.095,0,0.172-0.021,0.237-0.06c0.063-0.034,0.109-0.078,0.139-0.117c0.005-0.006,0.011-0.008,0.014-0.016h0.004v0.161l0,0l0,0
					l0,0l0,0h0.205l0,0v-0.766c0-0.047-0.002-0.089-0.008-0.131C17.397,62.856,17.394,62.846,17.392,62.835z M16.63,63.51
					c-0.009-0.011-0.016-0.026-0.022-0.036c-0.001-0.006-0.002-0.011-0.004-0.016c-0.005-0.016-0.009-0.034-0.009-0.055l0,0
					c0-0.225,0.309-0.245,0.435-0.245l0,0c0.05,0,0.098,0.005,0.147,0.005v0.112c0,0.112-0.043,0.208-0.125,0.269
					c-0.005,0.002-0.008,0.005-0.013,0.008c-0.006,0.005-0.016,0.01-0.024,0.013c-0.011,0.008-0.022,0.016-0.035,0.019
					c-0.002,0.003-0.005,0.003-0.008,0.003c-0.019,0.005-0.041,0.01-0.063,0.016c-0.008,0-0.019,0-0.028,0.002
					c-0.018,0-0.034,0.003-0.052,0.003c-0.014,0-0.028,0-0.041-0.003c-0.005,0-0.011-0.002-0.016-0.005
					c-0.007,0-0.017-0.003-0.024-0.005c-0.008-0.003-0.016-0.006-0.025-0.008c-0.005-0.003-0.009-0.003-0.014-0.006
					c-0.008-0.005-0.018-0.01-0.025-0.016C16.661,63.549,16.644,63.531,16.63,63.51z"/>
				<path class="st11" d="M21.222,62.479L21.222,62.479L21.222,62.479c-0.015,0-0.031,0-0.046,0.002
					c-0.004,0.003-0.008,0.003-0.012,0.003c-0.012,0.003-0.024,0.005-0.037,0.011c-0.003,0-0.007,0.002-0.011,0.005
					c-0.012,0.003-0.021,0.008-0.033,0.013c-0.004,0.003-0.009,0.006-0.014,0.008c-0.009,0.003-0.02,0.011-0.029,0.016
					c-0.004,0.003-0.009,0.008-0.013,0.011c-0.01,0.005-0.019,0.016-0.028,0.024c-0.004,0.003-0.007,0.005-0.01,0.008
					c-0.023,0.021-0.046,0.042-0.063,0.07l-0.034,0.055h-0.001V62.51l0,0h-0.215l0,0v1.253l0,0h0.229l0,0v-0.57
					c0-0.315,0.136-0.514,0.343-0.514c0.04,0,0.087,0.005,0.128,0.023v-0.208C21.326,62.484,21.292,62.479,21.222,62.479
					L21.222,62.479z"/>
				<path class="st11" d="M22.377,61.918L22.377,61.918v0.758h-0.005c-0.012-0.016-0.024-0.033-0.04-0.052c0.002,0,0.002,0,0.002,0
					c-0.003-0.003-0.005-0.003-0.006-0.005c-0.023-0.026-0.051-0.047-0.083-0.068c-0.005-0.005-0.011-0.008-0.017-0.013
					c-0.008-0.003-0.018-0.008-0.026-0.011c-0.007-0.005-0.015-0.008-0.024-0.01c-0.007-0.003-0.018-0.008-0.026-0.011
					c-0.009-0.003-0.021-0.008-0.031-0.011c-0.007,0-0.018-0.005-0.028-0.005c-0.011-0.003-0.023-0.005-0.036-0.008
					c-0.009,0-0.018-0.003-0.028-0.003c-0.018-0.002-0.038-0.002-0.059-0.002c-0.004,0-0.008,0-0.013,0
					c-0.155,0-0.276,0.055-0.365,0.141c-0.117,0.119-0.174,0.299-0.174,0.492c0,0.003,0,0.005,0,0.008c0,0.021,0,0.044,0.002,0.067
					c0,0.008,0.001,0.016,0.002,0.023c0.001,0.016,0.002,0.037,0.005,0.053c0.001,0.008,0.002,0.016,0.004,0.024
					c0.004,0.018,0.008,0.036,0.012,0.057c0,0.003,0.002,0.008,0.004,0.014c0.006,0.023,0.012,0.047,0.02,0.07
					c0,0.002,0,0.002,0,0.002c0.008,0.021,0.017,0.045,0.027,0.065c0.001,0.003,0.004,0.008,0.005,0.011
					c0.008,0.021,0.019,0.036,0.03,0.055c0.002,0.002,0.002,0.005,0.004,0.008c0.031,0.044,0.066,0.086,0.109,0.122
					c0.005,0.003,0.01,0.008,0.016,0.014c0.006,0.002,0.012,0.008,0.019,0.01c0.009,0.006,0.019,0.014,0.03,0.021
					c0.004,0,0.01,0.002,0.014,0.005c0.013,0.008,0.025,0.013,0.04,0.019c0.004,0.002,0.007,0.002,0.009,0.005
					c0.016,0.005,0.034,0.011,0.051,0.016c0.003,0,0.004,0,0.006,0.003c0.039,0.008,0.082,0.013,0.129,0.013l0,0l0,0l0,0
					c0.018,0,0.04-0.003,0.062-0.003c0.016-0.002,0.031-0.005,0.043-0.008c0.004,0,0.006,0,0.01-0.002
					c0.139-0.026,0.236-0.097,0.292-0.167c0.008-0.008,0.014-0.019,0.023-0.026h0.002v0.175l0,0h0.22l0,0v-1.845l0,0H22.377z
					 M22.272,62.796c0.01,0.016,0.02,0.031,0.029,0.044c0.006,0.011,0.011,0.021,0.016,0.031c0.009,0.016,0.016,0.034,0.022,0.056
					c0.004,0.008,0.008,0.018,0.012,0.028c0.005,0.021,0.01,0.047,0.015,0.07c0,0.005,0.002,0.013,0.004,0.019
					c0.004,0.031,0.006,0.062,0.006,0.094c0,0.149-0.054,0.317-0.173,0.406c-0.053,0.042-0.117,0.062-0.195,0.062
					c-0.018,0-0.035-0.003-0.051-0.003c-0.003-0.002-0.007-0.002-0.012-0.005c-0.013-0.003-0.024-0.005-0.035-0.008
					c-0.005-0.003-0.008-0.003-0.011-0.003c-0.013-0.005-0.024-0.01-0.034-0.016c-0.003-0.002-0.004-0.002-0.007-0.005
					c-0.014-0.008-0.025-0.016-0.037-0.026c0.001,0,0.001,0,0.001,0c-0.016-0.013-0.029-0.026-0.043-0.042
					c-0.021-0.025-0.038-0.052-0.055-0.083l0,0c-0.015-0.028-0.026-0.062-0.036-0.094c0,0,0,0-0.001,0
					c-0.008-0.031-0.015-0.06-0.02-0.094c0-0.003,0-0.005-0.001-0.008c-0.004-0.028-0.006-0.062-0.005-0.091
					c-0.001-0.055,0.003-0.112,0.017-0.17c0.031-0.136,0.107-0.25,0.24-0.286c0.027-0.008,0.055-0.011,0.087-0.011
					c0.028,0,0.053,0.003,0.077,0.011c0.007,0,0.015,0.002,0.023,0.002c0.017,0.008,0.035,0.016,0.049,0.023
					c0.007,0.003,0.013,0.006,0.019,0.008C22.211,62.729,22.244,62.762,22.272,62.796z"/>
				<path class="st11" d="M13.613,60.483L13.613,60.483l-0.041-0.042c-0.025-0.025-0.061-0.041-0.099-0.041h-0.702v0.278h0.768
					c0.013,0,0.025,0.003,0.038,0.005c0.006,0,0.011,0.003,0.017,0.003c0.005,0.003,0.01,0.005,0.015,0.005
					c0.008,0.003,0.017,0.006,0.025,0.011c0.001,0,0.003,0.003,0.006,0.005c0.008,0.003,0.017,0.008,0.024,0.016l0,0
					c0.016,0.011,0.029,0.026,0.041,0.039c0.007,0.008,0.011,0.016,0.016,0.026c0.002,0.003,0.003,0.005,0.004,0.008
					c0.004,0.005,0.007,0.013,0.009,0.021c0.002,0.006,0.004,0.011,0.006,0.018c0.002,0.005,0.003,0.011,0.004,0.016
					c0.002,0.013,0.003,0.023,0.003,0.036v0.77h0.28v-0.701c0-0.039-0.017-0.076-0.042-0.1L13.613,60.483z"/>
			</g>
			<path class="st11" d="M32.952,62.315c-0.031-0.047-0.07-0.079-0.115-0.1c0-0.011,0-0.021,0-0.031
				c0-0.075-0.002-0.151-0.008-0.227l0.1-0.148c0.058-0.091,0.069-0.222,0.026-0.311c-0.03-0.057-0.078-0.091-0.134-0.091
				c-0.021,0-0.041,0.008-0.06,0.016c-0.085-0.411-0.237-0.797-0.444-1.151c0.022,0.016,0.047,0.031,0.069,0.044
				c0.102,0.06,0.159-0.075,0.089-0.146c-0.065-0.066-0.61-0.592-0.61-0.592s0.098,0.013,0.164,0.013
				c0.065,0,0.102-0.031,0.12-0.104c0.019-0.07-0.06-0.094-0.156-0.125c-0.095-0.031-0.519-0.12-0.519-0.12s0.059-0.047,0.042-0.146
				c-0.022-0.142-0.305-0.347-0.391-0.399c-0.105-0.06-0.229-0.064-0.298-0.028c-0.064,0.034-0.047,0.138-0.047,0.138l0.014,0.014
				c0.079,0.025,0.153,0.07,0.218,0.127c0.045,0.042,0.084,0.089,0.113,0.144c0.014,0.029,0.024,0.061,0.031,0.086
				c0.028,0.112-0.003,0.217-0.084,0.276c-0.053,0.052,0.12,0.143,0.12,0.143l0.396,0.005c0,0,0,0.003,0.002,0.003
				c0.068,0,0.141,0.081,0.155,0.151c0.007,0.036-0.001,0.07-0.039,0.083h-0.262c-0.062,0.021-0.026,0.042-0.004,0.07l0.673,0.717
				c0.066,0.072,0.066,0.166,0,0.205c-0.067,0.039-0.177,0.011-0.244-0.062l-0.502-0.581c-0.035-0.036-0.046-0.041-0.059-0.039
				c-0.011,0.003-0.018,0.008-0.011,0.05l0.135,0.592c0.014,0.083-0.09,0.15-0.184,0.141c-0.096-0.014-0.158-0.042-0.172-0.125
				l-0.183-0.853c-0.011-0.031,0-0.057-0.077-0.057l-0.438,0.013c-0.078,0.005-0.159-0.07-0.186-0.146
				c-0.028-0.073,0.011-0.134,0.089-0.136l0.532-0.016c0,0,0.07-0.084-0.025-0.115c-0.158-0.028-0.315-0.138-0.391-0.286
				c-0.074-0.141-0.051-0.276,0.045-0.354c0.034-0.028,0.08-0.047,0.133-0.058c0.055-0.008,0.112-0.005,0.168,0.008
				c0.008,0.003,0.015,0.006,0.022,0.006c-0.008-0.003-0.015-0.008-0.022-0.011l-0.047-0.453c0.002-0.026-0.009-0.047,0.051-0.086
				l0.357-0.271c0.065-0.052,0.102-0.075,0.094-0.15c-0.008-0.061-0.044-0.1-0.114-0.092l-0.393,0.266c0,0-0.054-0.119,0.027-0.156
				c0.133-0.049,0.25-0.159,0.284-0.278c0.046-0.162-0.07-0.289-0.258-0.281c-0.188,0.005-0.378,0.142-0.425,0.307
				c-0.034,0.12,0.022,0.222,0.133,0.264c0.06,0.031-0.13,0.151-0.13,0.151l-0.494-0.042c-0.066-0.005-0.141,0.039-0.167,0.099
				c-0.025,0.06,0.004,0.136,0.07,0.141l0.408,0.037c0.063,0.005,0.037,0.028,0.024,0.055l-0.144,0.219
				c-0.309-0.081-0.633-0.125-0.968-0.125c-2.09,0-3.782,1.693-3.782,3.78c0,0.703,0.191,1.357,0.524,1.92l-0.157-0.109
				c-0.127-0.088-0.266-0.057-0.286,0.05c-0.019,0.099,0.063,0.217,0.156,0.281l0.788,0.553l0,0l-0.095,0.177
				c-0.051,0.084,0.012,0.198,0.092,0.266c0.106,0.089,0.231,0.097,0.282,0.008l0.103-0.192c0.001,0,0.003,0,0.004,0.003
				c0.003,0.119,0.083,0.271,0.214,0.398c0.131,0.128,0.28,0.203,0.403,0.203c0.062,0,0.116-0.021,0.152-0.06
				c0.016-0.016,0.027-0.034,0.038-0.053c0.168,0.078,0.348,0.144,0.529,0.193c-0.007,0.036-0.006,0.07,0.006,0.109
				c0.021,0.06,0.069,0.111,0.132,0.141c0.113,0.055,0.261,0.013,0.312-0.084l0.031-0.059c0.18,0.023,0.365,0.039,0.553,0.039
				c0.021,0,0.043-0.003,0.065-0.003l0.372,0.259c0.05,0.036,0.109,0.055,0.17,0.055c0.075,0,0.146-0.031,0.191-0.084
				c0.04-0.05,0.057-0.106,0.049-0.169c-0.005-0.05-0.029-0.1-0.066-0.139c0.408-0.086,0.791-0.236,1.141-0.442l0.392,0.231
				c0.02,0.016,0.042,0.021,0.039,0.092l0.009,0.44c0.006,0.08,0.006,0.122,0.068,0.161c0.049,0.028,0.102,0.023,0.134-0.039
				l0.014-0.464c0,0,0.125,0.026,0.11,0.114c-0.039,0.133-0.021,0.29,0.058,0.389c0.102,0.13,0.266,0.112,0.367-0.044
				c0.101-0.151,0.099-0.384-0.003-0.514c-0.075-0.099-0.188-0.112-0.281-0.05c-0.058,0.029-0.047-0.192-0.047-0.192l0.314-0.367
				c0.042-0.053,0.05-0.136,0.018-0.19c-0.034-0.055-0.108-0.073-0.15-0.024l-0.262,0.302c-0.041,0.045-0.043,0.014-0.055-0.016
				l-0.104-0.278c0.149-0.023,0.315-0.112,0.441-0.248c0.123-0.135,0.186-0.289,0.165-0.414c-0.003-0.01-0.007-0.023-0.012-0.033
				c0.218-0.326,0.386-0.683,0.496-1.066c0.1-0.016,0.193-0.094,0.259-0.221C33.062,62.791,33.065,62.484,32.952,62.315z
				 M30.344,58.485c0.023-0.034,0.031-0.039,0.043-0.042c0.014,0,0.019,0.005,0.022,0.039l0.019,0.18
				c-0.055-0.021-0.107-0.042-0.161-0.058L30.344,58.485z M29.805,61.707l0.077,0.609c0,0,0.146,0.112,0.169,0.014
				c0.022-0.173,0.144-0.323,0.322-0.373c0.234-0.067,0.479,0.073,0.545,0.308c0.067,0.234-0.071,0.479-0.307,0.547
				c-0.176,0.05-0.36-0.016-0.468-0.151c-0.073-0.072-0.139,0.1-0.139,0.1l0.249,0.56c0.035,0.084-0.005,0.18-0.087,0.214
				c-0.082,0.034-0.179-0.005-0.213-0.089l-0.201-0.466c-0.038-0.078-0.06-0.044-0.094-0.026l-0.892,0.594
				c-0.087,0.058-0.203,0.037-0.262-0.052c-0.058-0.086-0.034-0.203,0.052-0.263l0.678-0.451c0.047-0.034,0.05-0.042,0.046-0.058
				c-0.004-0.013-0.014-0.021-0.066-0.025l-0.815-0.034c-0.104-0.003-0.186-0.089-0.182-0.195c0.005-0.106,0.093-0.185,0.197-0.18
				l1.069,0.044c0.039-0.002,0.075,0.016,0.068-0.07l-0.072-0.503c-0.014-0.091,0.048-0.172,0.137-0.185
				C29.706,61.559,29.789,61.619,29.805,61.707z M27.421,60.613l0.575-0.205c0,0,0.07-0.146-0.036-0.144
				c-0.175,0.021-0.355-0.045-0.455-0.178c-0.131-0.18-0.065-0.411,0.148-0.52c0.213-0.109,0.49-0.055,0.622,0.122
				c0.099,0.136,0.086,0.303-0.016,0.422c-0.053,0.078,0.136,0.092,0.136,0.092l0.48-0.336c0.07-0.047,0.176-0.037,0.231,0.023
				c0.059,0.06,0.047,0.149-0.024,0.197l-0.404,0.274c-0.063,0.047-0.024,0.057,0.004,0.08l0.833,0.597
				c0.082,0.058,0.091,0.159,0.023,0.229c-0.069,0.067-0.19,0.075-0.272,0.016l-0.636-0.451c-0.042-0.031-0.052-0.031-0.066-0.025
				c-0.015,0.008-0.018,0.016-0.007,0.062l0.195,0.677c0.026,0.089-0.037,0.175-0.142,0.196c-0.104,0.021-0.208-0.034-0.233-0.12
				l-0.257-0.892c-0.013-0.033-0.005-0.067-0.086-0.039l-0.476,0.175c-0.083,0.034-0.184,0.003-0.22-0.067
				C27.301,60.728,27.337,60.644,27.421,60.613z M25.426,62.96c-0.022-0.083,0.004-0.167,0.061-0.188l0.32-0.125
				c0.053-0.026,0.029-0.05,0.015-0.083l-0.404-0.925c-0.039-0.089-0.021-0.201,0.038-0.243c0.059-0.041,0.138-0.002,0.177,0.086
				l0.31,0.709c0.021,0.044,0.027,0.047,0.037,0.047c0.012-0.003,0.016-0.011,0.018-0.06l0.024-0.767
				c0.001-0.096,0.062-0.161,0.134-0.141c0.072,0.019,0.127,0.112,0.123,0.211l-0.03,1.001c0.001,0.039-0.012,0.07,0.046,0.075
				l0.345,0.006c0.041,0,0.077,0.028,0.101,0.07c0.015,0.013,0.03,0.031,0.042,0.052l0.276,0.438
				c0.052,0.073,0.052,0.034,0.066,0.014l0.265-0.639c0.033-0.067,0.137-0.047,0.203,0.034c0.068,0.078,0.017,0.227-0.016,0.297
				l-0.209,0.523c-0.016,0.036-0.013,0.047-0.006,0.062c0.008,0.013,0.016,0.019,0.051,0.016l0.601-0.05
				c0.067-0.008,0.169-0.018,0.204,0.089c0.036,0.104-0.012,0.211-0.079,0.219l-0.679,0.034c-0.025,0.005-0.055-0.008-0.018,0.078
				l0.258,0.526c0.041,0.086,0.034,0.177-0.016,0.2c-0.051,0.026-0.164-0.02-0.203-0.109l-0.262-0.599c0,0-0.144-0.102-0.122,0.005
				c0.051,0.175,0.07,0.331-0.021,0.401c-0.122,0.097-0.325-0.014-0.453-0.245c-0.128-0.229-0.133-0.49-0.012-0.584
				c0.091-0.07,0.228-0.025,0.345,0.1c0.073,0.064,0.026-0.107,0.026-0.107l-0.351-0.519l-0.374-0.01c0,0-0.078,0.122-0.008,0.161
				c0.116,0.045,0.22,0.18,0.253,0.354c0.045,0.229-0.049,0.443-0.212,0.472c-0.16,0.028-0.326-0.136-0.371-0.367
				c-0.034-0.175,0.012-0.336,0.103-0.417c0.051-0.062-0.066-0.148-0.066-0.148l-0.383,0.159
				C25.515,63.096,25.451,63.044,25.426,62.96z M27.396,65.623c-0.076,0.081-0.274,0.016-0.439-0.146
				c-0.093-0.088-0.156-0.188-0.18-0.273c-0.007-0.028-0.011-0.057-0.01-0.08c-0.006-0.065-0.127-0.089-0.127-0.089l-0.022,0.042
				l-0.113,0.219c-0.021,0.033-0.09,0.018-0.155-0.037c-0.062-0.055-0.097-0.127-0.075-0.166l0.116-0.209
				c0.002-0.005,0.002-0.008,0.002-0.01c0.006-0.029-0.019-0.042-0.044-0.058l-0.038-0.029l-0.754-0.531
				c-0.077-0.055-0.132-0.141-0.123-0.192c0.012-0.055,0.081-0.055,0.159,0l0.315,0.222l0.289,0.203
				c0.04,0.025,0.048,0.028,0.054,0.024c0.005-0.006,0.002-0.011-0.026-0.053l-0.441-0.591c-0.057-0.076-0.059-0.146-0.005-0.156
				c0.055-0.014,0.143,0.041,0.199,0.117l0.579,0.771c0.023,0.031,0.035,0.058,0.073,0.042l0.207-0.122
				c0.038-0.021,0.113,0.013,0.168,0.072c0.058,0.062,0.074,0.131,0.038,0.154l-0.256,0.141c0,0,0.026,0.12,0.09,0.122
				c0.097-0.008,0.24,0.058,0.364,0.18c0.146,0.144,0.219,0.315,0.174,0.407C27.41,65.605,27.405,65.616,27.396,65.623z
				 M29.745,65.915c0.082,0.057,0.102,0.156,0.047,0.224c-0.058,0.068-0.17,0.073-0.252,0.016l-0.28-0.192l-0.57-0.396
				c-0.032-0.018-0.055-0.049-0.091,0.011l-0.18,0.336L28.4,65.947c-0.035,0.067-0.128,0.088-0.206,0.052
				c-0.065-0.031-0.101-0.097-0.093-0.153c0.003-0.011,0.006-0.024,0.011-0.034l0.244-0.443c0,0-0.059-0.15-0.131-0.096
				c-0.106,0.102-0.281,0.135-0.45,0.075c-0.228-0.078-0.357-0.297-0.29-0.487c0.066-0.19,0.302-0.281,0.528-0.203
				c0.17,0.062,0.285,0.2,0.306,0.347c0.022,0.086,0.163,0.008,0.163,0.008l0.082-0.5c0.015-0.073,0.094-0.117,0.179-0.094
				c0.086,0.021,0.142,0.096,0.13,0.166L28.8,65c-0.01,0.07,0.025,0.061,0.064,0.065l1.029,0.073c0.1,0.008,0.182,0.083,0.186,0.172
				c0.004,0.088-0.075,0.153-0.176,0.146l-0.785-0.058c-0.05-0.002-0.058,0.003-0.062,0.014c-0.005,0.016-0.001,0.023,0.042,0.052
				l0.633,0.44L29.745,65.915z M31.47,65.371c-0.006,0.011-0.014,0.013-0.041-0.003l-0.176-0.106c0.053-0.036,0.1-0.073,0.149-0.112
				l0.062,0.164C31.478,65.352,31.478,65.36,31.47,65.371z M31.979,64.693c-0.08,0.086-0.178,0.148-0.272,0.188
				c-0.047,0.018-0.094,0.031-0.139,0.033c-0.052,0.008-0.102,0-0.141-0.021c-0.101-0.053-0.11-0.18-0.036-0.318
				c0.033-0.08-0.128-0.002-0.128-0.002l-0.011,0.01l-0.362,0.467c-0.055,0.07-0.146,0.112-0.203,0.094
				c-0.057-0.016-0.057-0.086-0.002-0.156l0.312-0.398c0.052-0.065,0.015-0.055-0.013-0.058l-0.79-0.044
				c-0.077-0.008-0.099-0.078-0.047-0.159c0.05-0.083,0.154-0.148,0.232-0.146l0.599,0.037c0.043,0,0.05-0.006,0.062-0.016
				c0.011-0.014,0.014-0.021-0.002-0.05l-0.253-0.411c-0.031-0.053,0.012-0.148,0.099-0.212c0.086-0.064,0.183-0.075,0.214-0.021
				l0.331,0.539c0.014,0.019,0.013,0.045,0.08-0.013l0.386-0.357c0.068-0.065,0.156-0.089,0.198-0.053
				c0.042,0.031,0.02,0.112-0.048,0.175l-0.468,0.428c0,0-0.043,0.141,0.05,0.091c0.145-0.102,0.31-0.141,0.411-0.089
				c0.06,0.034,0.086,0.094,0.083,0.162C32.121,64.485,32.071,64.591,31.979,64.693z M32.874,62.976
				c-0.045,0.086-0.102,0.139-0.159,0.164c-0.071,0.031-0.146,0.011-0.199-0.067c-0.071-0.109-0.087-0.292-0.047-0.459
				c0.017-0.102-0.086-0.047-0.086-0.047l-0.221,0.534c-0.031,0.078-0.091,0.109-0.13,0.062c-0.039-0.041-0.044-0.138-0.012-0.216
				l0.184-0.445c0.029-0.078,0.005-0.073-0.013-0.089l-0.537-0.331c-0.052-0.034-0.071-0.141-0.041-0.237
				c0.028-0.099,0.094-0.153,0.146-0.119l0.409,0.252c0.027,0.014,0.033,0.014,0.039,0c0.008-0.013,0.008-0.023-0.006-0.067
				l-0.197-0.659c-0.025-0.083-0.003-0.2,0.052-0.261c0.055-0.06,0.118-0.039,0.145,0.045l0.26,0.859
				c0.01,0.031,0.01,0.07,0.053,0.011l0.236-0.362c0.01-0.014,0.02-0.023,0.027-0.031c0.037-0.031,0.079-0.026,0.105,0.023
				c0.028,0.062,0.021,0.164-0.021,0.229l-0.042,0.06l-0.245,0.372c0,0-0.02,0.181,0.036,0.142c0.073-0.07,0.158-0.081,0.225-0.031
				c0.018,0.016,0.034,0.031,0.05,0.052C32.981,62.504,32.976,62.781,32.874,62.976z"/>
			<g>
				<g>
					<path class="st11" d="M23.891,67.376c-0.567,0.031-0.93-0.189-1.214-0.661c-0.052,0.028-0.111,0.052-0.178,0.067
						c0.319,0.475,0.752,0.704,1.404,0.636L23.891,67.376z"/>
					<path class="st11" d="M18.867,67.142h0.189v0.089h-0.55v-0.089h0.178c0,0,0-0.322,0-0.472c0-0.148,0-0.356,0-0.356
						c0-0.186-0.047-0.279-0.211-0.279c-0.164,0-0.352,0.162-0.393,0.261c-0.002,0.023-0.002,0.07-0.002,0.07v0.776h0.192v0.089
						h-0.563v-0.089h0.185v-1.076l-0.172-0.067v-0.044h0.246c0,0,0.094,0.188,0.096,0.188c0.06-0.062,0.25-0.234,0.471-0.234
						c0.212,0,0.335,0.142,0.335,0.344C18.867,66.337,18.867,67.142,18.867,67.142z M21.589,66.584c0,0.378-0.291,0.683-0.615,0.683
						c-0.323,0-0.614-0.305-0.614-0.683c0-0.372,0.289-0.677,0.614-0.677C21.3,65.908,21.589,66.212,21.589,66.584z M21.38,66.584
						c0-0.325-0.135-0.589-0.406-0.589c-0.269,0-0.406,0.264-0.406,0.589c0,0.334,0.127,0.595,0.406,0.595
						C21.254,67.179,21.38,66.918,21.38,66.584z M19.814,67.179c-0.193,0-0.392-0.206-0.392-0.597c0-0.386,0.185-0.6,0.39-0.6
						c0.054,0,0.098,0.011,0.123,0.019c0,0.018,0,0.208,0,0.224c0.02,0.016,0.059,0.029,0.088,0.029
						c0.061,0.002,0.12-0.042,0.132-0.134c0.01-0.075-0.037-0.135-0.121-0.174c-0.053-0.021-0.113-0.039-0.22-0.039
						c-0.325,0-0.613,0.305-0.613,0.677c0,0.378,0.291,0.683,0.613,0.683c0.132,0,0.258-0.052,0.362-0.138l-0.051-0.065
						C20.039,67.132,19.973,67.179,19.814,67.179z M17.369,67.142h0.167v0.047l-0.258,0.061l-0.086-0.198
						c-0.137,0.144-0.28,0.214-0.457,0.214c-0.203,0-0.339-0.148-0.339-0.35c0-0.38,0.423-0.484,0.791-0.528
						c0.008-0.295-0.122-0.407-0.286-0.407c-0.145,0-0.212,0.094-0.212,0.172c0,0.037,0,0.037,0,0.073h-0.183
						c0,0-0.015-0.025-0.015-0.07c0-0.106,0.145-0.25,0.41-0.25c0.257,0,0.461,0.125,0.466,0.55
						c0.001,0.086,0.001,0.531,0.001,0.531V67.142z M17.187,66.47c-0.278,0.028-0.606,0.109-0.606,0.398
						c0,0.162,0.086,0.273,0.255,0.273c0.158,0,0.322-0.117,0.347-0.299C17.187,66.812,17.188,66.53,17.187,66.47z M22.59,65.908
						c-0.275,0-0.465,0.226-0.487,0.244c-0.081-0.18-0.087-0.195-0.087-0.195h-0.244v0.047l0.171,0.065v1.073H21.76v0.089h0.562
						v-0.089h-0.186v-0.562c0-0.023,0.002-0.081,0.004-0.13c0.021-0.273,0.221-0.436,0.386-0.436c0.156,0,0.199,0.122,0.199,0.256
						h0.196c0.004-0.016,0.012-0.053,0.012-0.086C22.935,66.038,22.797,65.908,22.59,65.908z"/>
				</g>
				<g>
					<g>
						<g>
							<path class="st11" d="M16.665,68.666c0.019,0,0.043,0.003,0.07,0.005c0.027,0.003,0.051,0.011,0.073,0.023
								c0.024,0.011,0.043,0.029,0.06,0.05c0.015,0.021,0.024,0.05,0.024,0.086c0,0.019-0.004,0.037-0.009,0.058
								s-0.018,0.039-0.037,0.055c-0.013,0.013-0.031,0.023-0.05,0.031c-0.02,0.008-0.04,0.013-0.057,0.019l0,0
								c0.021,0.005,0.039,0.01,0.054,0.021c0.014,0.011,0.025,0.021,0.035,0.034c0.009,0.013,0.017,0.028,0.023,0.044
								c0.006,0.016,0.01,0.031,0.014,0.05c0.005,0.021,0.011,0.041,0.018,0.057c0.005,0.016,0.014,0.029,0.024,0.037
								c0.01,0.01,0.021,0.016,0.037,0.021c0.015,0.005,0.035,0.005,0.057,0.005h0.01v0.037c-0.012,0.002-0.025,0.005-0.04,0.005
								c-0.015,0.003-0.027,0.003-0.04,0.003c-0.011,0-0.026,0-0.042-0.003c-0.015-0.003-0.031-0.008-0.046-0.021
								c-0.009-0.008-0.017-0.016-0.023-0.026c-0.008-0.008-0.013-0.019-0.017-0.028c-0.004-0.011-0.008-0.023-0.011-0.034
								c-0.002-0.011-0.006-0.021-0.008-0.028c-0.008-0.031-0.016-0.055-0.024-0.073c-0.009-0.02-0.019-0.036-0.032-0.047
								c-0.013-0.011-0.027-0.019-0.043-0.021c-0.016-0.008-0.035-0.011-0.059-0.011c-0.008,0-0.017,0-0.025,0.003
								c-0.009,0-0.016,0-0.021,0v0.227l0.017,0.013l0.053,0.003v0.039h-0.225v-0.039l0.055-0.003l0.016-0.013v-0.519l-0.016-0.014
								l-0.055-0.005v-0.039H16.665z M16.579,68.974c0.005,0,0.014,0,0.024,0c0.01,0.003,0.02,0.003,0.032,0.003
								c0.008,0,0.019,0,0.029-0.003c0.011,0,0.021-0.003,0.033-0.005c0.012-0.003,0.023-0.006,0.035-0.014
								c0.011-0.002,0.022-0.01,0.03-0.018c0.015-0.014,0.024-0.029,0.029-0.05c0.003-0.016,0.004-0.031,0.004-0.047
								c0-0.019-0.001-0.036-0.007-0.055c-0.003-0.019-0.015-0.031-0.034-0.047c-0.009-0.006-0.018-0.011-0.03-0.016
								c-0.011-0.003-0.021-0.006-0.033-0.008c-0.011-0.003-0.023-0.003-0.035-0.003c-0.012-0.003-0.022-0.003-0.032-0.003h-0.046
								V68.974z"/>
							<path class="st11" d="M17.333,68.666v0.039l-0.058,0.005l-0.017,0.014v0.339c0,0.008,0.001,0.021,0.001,0.031
								c0.001,0.01,0.001,0.023,0.004,0.036c0.003,0.011,0.007,0.023,0.011,0.036c0.004,0.014,0.01,0.023,0.02,0.034
								c0.007,0.011,0.018,0.019,0.029,0.026c0.01,0.005,0.021,0.013,0.032,0.016c0.013,0.002,0.025,0.005,0.037,0.008
								c0.011,0,0.023,0,0.034,0c0.024,0,0.048-0.003,0.071-0.008c0.024-0.006,0.045-0.019,0.061-0.039
								c0.009-0.011,0.015-0.023,0.021-0.034c0.004-0.013,0.009-0.026,0.012-0.039c0.003-0.013,0.004-0.026,0.004-0.036
								c0.001-0.011,0.001-0.023,0.001-0.031v-0.331l-0.018-0.019l-0.057-0.008v-0.039h0.199v0.039l-0.056,0.008l-0.017,0.019v0.339
								c0,0.028-0.001,0.055-0.006,0.083c-0.004,0.028-0.016,0.055-0.031,0.078c-0.016,0.021-0.04,0.042-0.071,0.055
								c-0.031,0.016-0.075,0.023-0.127,0.023c-0.054,0-0.096-0.008-0.128-0.021c-0.031-0.016-0.055-0.034-0.071-0.055
								c-0.016-0.023-0.027-0.05-0.031-0.078c-0.005-0.026-0.008-0.058-0.008-0.086v-0.347l-0.016-0.014l-0.054-0.005v-0.039H17.333
								z"/>
							<path class="st11" d="M17.898,69.115h0.053l0.014,0.106l0.011,0.019c0.01,0.003,0.024,0.008,0.04,0.011
								c0.015,0.008,0.037,0.008,0.065,0.008c0.021,0,0.04,0,0.057-0.006c0.018-0.002,0.033-0.01,0.045-0.018
								c0.013-0.011,0.023-0.021,0.029-0.037c0.008-0.016,0.012-0.033,0.012-0.055c0-0.023-0.004-0.041-0.014-0.052
								c-0.008-0.013-0.019-0.023-0.031-0.031c-0.017-0.011-0.035-0.019-0.053-0.028c-0.021-0.008-0.041-0.019-0.06-0.029
								c-0.02-0.008-0.041-0.016-0.059-0.025c-0.019-0.011-0.036-0.023-0.051-0.034c-0.014-0.013-0.027-0.028-0.035-0.047
								c-0.008-0.013-0.014-0.034-0.014-0.055c0-0.039,0.008-0.07,0.022-0.094c0.016-0.023,0.035-0.045,0.057-0.058
								c0.023-0.013,0.046-0.023,0.07-0.026c0.025-0.005,0.05-0.008,0.072-0.008c0.018,0,0.041,0.003,0.069,0.006
								c0.028,0.002,0.057,0.01,0.088,0.021v0.146h-0.051l-0.011-0.089l-0.015-0.016c-0.011-0.006-0.023-0.011-0.037-0.016
								c-0.013-0.006-0.029-0.006-0.048-0.006c-0.017,0-0.033,0.003-0.048,0.008c-0.016,0.006-0.029,0.014-0.041,0.021
								c-0.012,0.01-0.02,0.021-0.027,0.034c-0.008,0.016-0.012,0.031-0.012,0.049c0,0.019,0.004,0.034,0.012,0.047
								c0.008,0.016,0.019,0.026,0.039,0.037c0.015,0.01,0.031,0.021,0.051,0.028c0.018,0.008,0.038,0.016,0.058,0.023
								c0.019,0.011,0.038,0.021,0.057,0.031c0.019,0.011,0.037,0.019,0.05,0.031c0.016,0.016,0.027,0.028,0.036,0.047
								c0.009,0.016,0.015,0.034,0.015,0.058c0,0.039-0.009,0.07-0.024,0.096c-0.017,0.026-0.036,0.045-0.062,0.058
								c-0.024,0.016-0.051,0.026-0.081,0.031c-0.03,0.005-0.057,0.008-0.083,0.008c-0.042,0-0.076-0.005-0.104-0.013
								c-0.028-0.008-0.048-0.014-0.061-0.019V69.115z"/>
							<path class="st11" d="M18.535,69.115h0.053l0.015,0.106l0.011,0.019c0.011,0.003,0.023,0.008,0.039,0.011
								c0.015,0.008,0.037,0.008,0.066,0.008c0.02,0,0.039,0,0.056-0.006c0.02-0.002,0.034-0.01,0.047-0.018
								c0.012-0.011,0.023-0.021,0.031-0.037c0.006-0.016,0.01-0.033,0.01-0.055c0-0.023-0.005-0.041-0.014-0.052
								c-0.009-0.013-0.019-0.023-0.031-0.031c-0.018-0.011-0.035-0.019-0.055-0.028c-0.019-0.008-0.04-0.019-0.061-0.029
								c-0.02-0.008-0.039-0.016-0.059-0.025c-0.017-0.011-0.035-0.023-0.049-0.034c-0.015-0.013-0.028-0.028-0.037-0.047
								c-0.009-0.013-0.013-0.034-0.013-0.055c0-0.039,0.008-0.07,0.023-0.094c0.014-0.023,0.033-0.045,0.056-0.058
								c0.02-0.013,0.045-0.023,0.07-0.026c0.026-0.005,0.05-0.008,0.071-0.008c0.019,0,0.042,0.003,0.07,0.006
								c0.027,0.002,0.055,0.01,0.088,0.021v0.146h-0.051L18.86,68.74l-0.014-0.016c-0.012-0.006-0.023-0.011-0.037-0.016
								c-0.014-0.006-0.029-0.006-0.048-0.006c-0.017,0-0.033,0.003-0.049,0.008c-0.014,0.006-0.028,0.014-0.04,0.021
								c-0.011,0.01-0.021,0.021-0.028,0.034c-0.007,0.016-0.011,0.031-0.011,0.049c0,0.019,0.004,0.034,0.011,0.047
								c0.008,0.016,0.021,0.026,0.04,0.037c0.014,0.01,0.032,0.021,0.049,0.028c0.02,0.008,0.039,0.016,0.058,0.023
								c0.02,0.011,0.039,0.021,0.059,0.031c0.019,0.011,0.035,0.019,0.05,0.031c0.014,0.016,0.026,0.028,0.035,0.047
								c0.009,0.016,0.014,0.034,0.014,0.058c0,0.039-0.009,0.07-0.025,0.096c-0.016,0.026-0.037,0.045-0.061,0.058
								c-0.024,0.016-0.052,0.026-0.081,0.031c-0.029,0.005-0.057,0.008-0.083,0.008c-0.042,0-0.075-0.005-0.104-0.013
								c-0.028-0.008-0.048-0.014-0.061-0.019V69.115z"/>
							<path class="st11" d="M19.157,69.258l0.06-0.003l0.016-0.013v-0.519l-0.016-0.014l-0.06-0.005v-0.039h0.236v0.039
								l-0.059,0.005l-0.016,0.014v0.519l0.016,0.013l0.059,0.003v0.039h-0.236V69.258z"/>
							<path class="st11" d="M19.878,68.662l0.226,0.586l0.057,0.011v0.039h-0.214v-0.039l0.058-0.003l0.008-0.013l-0.068-0.183
								h-0.222l-0.067,0.183l0.009,0.013l0.062,0.003v0.039h-0.184v-0.039l0.055-0.011l0.219-0.586H19.878z M19.738,69.016h0.191
								l-0.097-0.258L19.738,69.016z"/>
						</g>
					</g>
					<path class="st11" d="M21.008,69.227l0.018-0.081h0.042v0.153h-0.437v-0.06c0.033-0.026,0.06-0.047,0.08-0.065
						c0.02-0.016,0.035-0.028,0.049-0.041c0.013-0.011,0.024-0.022,0.033-0.029c0.011-0.008,0.021-0.018,0.031-0.031
						c0.016-0.013,0.031-0.031,0.047-0.047c0.014-0.017,0.029-0.033,0.041-0.052c0.013-0.021,0.023-0.042,0.03-0.062
						c0.009-0.023,0.013-0.047,0.013-0.073c0-0.041-0.012-0.075-0.033-0.099c-0.021-0.021-0.052-0.034-0.09-0.034
						c-0.031,0-0.059,0.008-0.086,0.021v0.103c-0.008,0.005-0.017,0.008-0.024,0.01c-0.008,0.003-0.014,0.006-0.019,0.006
						c-0.004,0-0.011-0.003-0.016-0.006c-0.007,0-0.012-0.002-0.018-0.008c-0.005-0.002-0.009-0.01-0.013-0.016
						c-0.004-0.008-0.005-0.016-0.005-0.023c0-0.018,0.005-0.033,0.015-0.05c0.011-0.016,0.024-0.028,0.043-0.041
						c0.016-0.014,0.038-0.023,0.063-0.031c0.023-0.008,0.051-0.011,0.081-0.011c0.025,0,0.051,0.003,0.075,0.011
						c0.023,0.008,0.045,0.018,0.062,0.033c0.018,0.019,0.031,0.034,0.042,0.056c0.011,0.023,0.017,0.047,0.017,0.072
						c0,0.023-0.003,0.045-0.011,0.062c-0.007,0.023-0.016,0.042-0.025,0.061c-0.012,0.018-0.025,0.039-0.041,0.052
						c-0.015,0.021-0.031,0.036-0.049,0.055c-0.015,0.013-0.029,0.028-0.045,0.042c-0.014,0.013-0.029,0.025-0.044,0.039
						c-0.015,0.013-0.031,0.025-0.049,0.039c-0.016,0.013-0.037,0.028-0.059,0.047H21.008z"/>
					<path class="st11" d="M21.503,68.659c0.012,0,0.025,0,0.037,0.003c0.013,0.002,0.027,0.005,0.041,0.01
						c0.012,0.006,0.026,0.014,0.039,0.023c0.013,0.014,0.025,0.026,0.037,0.039c0.022,0.029,0.038,0.063,0.049,0.104
						c0.011,0.042,0.017,0.089,0.017,0.144c0,0.031-0.002,0.065-0.008,0.091c-0.003,0.026-0.008,0.05-0.014,0.07
						c-0.007,0.019-0.013,0.034-0.018,0.047c-0.007,0.014-0.012,0.023-0.016,0.029c-0.012,0.018-0.024,0.031-0.039,0.041
						c-0.013,0.014-0.026,0.023-0.04,0.031c-0.014,0.006-0.029,0.011-0.045,0.016c-0.016,0.003-0.029,0.003-0.044,0.003
						c-0.03,0-0.058-0.005-0.079-0.016c-0.025-0.011-0.045-0.026-0.06-0.044c-0.017-0.016-0.03-0.037-0.042-0.061
						c-0.01-0.023-0.019-0.047-0.024-0.072c-0.007-0.023-0.011-0.047-0.014-0.07c-0.002-0.021-0.004-0.045-0.004-0.061
						c0-0.016,0-0.036,0.001-0.055c0.002-0.021,0.005-0.044,0.009-0.064c0.005-0.023,0.011-0.045,0.021-0.068
						c0.007-0.021,0.019-0.041,0.033-0.06c0.01-0.019,0.025-0.031,0.039-0.042c0.014-0.011,0.028-0.021,0.042-0.026
						c0.016-0.005,0.029-0.008,0.042-0.01C21.476,68.659,21.491,68.659,21.503,68.659z M21.499,68.701
						c-0.043,0-0.076,0.023-0.099,0.065c-0.023,0.047-0.034,0.119-0.034,0.219c0,0.028,0.002,0.06,0.004,0.094
						c0.002,0.036,0.009,0.067,0.019,0.094c0.008,0.028,0.022,0.052,0.041,0.067c0.017,0.019,0.04,0.028,0.069,0.028
						c0.014,0,0.025-0.005,0.037-0.008c0.012-0.005,0.02-0.01,0.028-0.016c0.009-0.005,0.016-0.013,0.021-0.023
						c0.005-0.008,0.01-0.018,0.014-0.025c0.009-0.019,0.017-0.042,0.024-0.076c0.008-0.033,0.011-0.078,0.011-0.135
						c0-0.053-0.003-0.097-0.01-0.133c-0.006-0.037-0.016-0.065-0.032-0.092c-0.003-0.005-0.007-0.013-0.012-0.021
						c-0.006-0.006-0.013-0.014-0.021-0.019c-0.007-0.005-0.016-0.011-0.028-0.016C21.524,68.703,21.512,68.701,21.499,68.701z"/>
					<path class="st11" d="M22.168,68.659v0.584l0.011,0.018h0.104v0.039h-0.328v-0.044h0.112l0.012-0.016v-0.508l-0.155,0.026
						v-0.04l0.214-0.06H22.168z"/>
					<path class="st11" d="M22.906,68.659v0.073h-0.283v0.192c0.021-0.008,0.042-0.01,0.06-0.013
						c0.019-0.003,0.032-0.003,0.044-0.003c0.024,0,0.049,0.003,0.074,0.008c0.023,0.008,0.046,0.019,0.066,0.031
						c0.021,0.016,0.035,0.034,0.05,0.055c0.013,0.023,0.018,0.053,0.018,0.089c0,0.031-0.006,0.062-0.017,0.089
						c-0.013,0.028-0.03,0.052-0.053,0.07c-0.018,0.016-0.04,0.028-0.068,0.044c-0.029,0.013-0.066,0.019-0.113,0.019
						c-0.001,0-0.007,0-0.018,0c-0.01,0-0.02-0.003-0.033-0.006c-0.012-0.002-0.025-0.005-0.04-0.01
						c-0.015-0.003-0.026-0.011-0.038-0.016c-0.011-0.008-0.021-0.019-0.027-0.026c-0.009-0.008-0.012-0.021-0.012-0.036
						c0-0.011,0.004-0.023,0.013-0.034c0.009-0.011,0.024-0.016,0.044-0.016c0.005,0,0.01,0,0.013,0
						c0.005,0,0.008,0.003,0.009,0.003l0.039,0.083c0.007,0,0.015,0.003,0.025,0.005c0.012,0.006,0.025,0.008,0.043,0.008
						c0.017,0,0.034-0.005,0.053-0.01c0.018-0.006,0.033-0.014,0.047-0.026c0.015-0.016,0.025-0.031,0.035-0.052
						c0.008-0.019,0.014-0.042,0.014-0.07c0-0.031-0.007-0.055-0.021-0.07c-0.013-0.021-0.028-0.037-0.049-0.045
						c-0.02-0.01-0.042-0.018-0.066-0.021c-0.021-0.003-0.043-0.005-0.063-0.005c-0.013,0-0.026,0-0.04,0
						c-0.013,0-0.029,0.002-0.047,0.005v-0.315H22.906z"/>
				</g>
			</g>
		</g>
	</g>
</g>
</svg>
